<?xml version="1.0" encoding="utf-8"?>
<!-- Generator: Adobe Illustrator 19.1.1, SVG Export Plug-In . SVG Version: 6.00 Build 0)  -->
<svg version="1.1" id="Layer_1" xmlns="http://www.w3.org/2000/svg" xmlns:xlink="http://www.w3.org/1999/xlink" x="0px" y="0px"
	 viewBox="106 7 960 338" style="enable-background:new 106 7 960 338;" xml:space="preserve">
<style type="text/css">
	.st0{fill:#023F61;}
	.st1{opacity:0.25;}
	.st2{fill:#ED8B00;}
	.st3{fill:#FFFFFF;}
	.st4{fill:#E0E4ED;}
	.st5{fill:#D98E9D;}
	.st6{fill:#71BE72;}
	.st7{fill:#0C84C6;}
	.st8{fill:none;stroke:#FFFFFF;stroke-width:2;stroke-miterlimit:10;}
	.st9{fill:#DD6545;}
	.st10{fill:#EFC7A3;}
	.st11{fill:#145566;}
	.st12{fill:#41352B;}
	.st13{fill:#545150;}
	.st14{fill:#1A3151;}
	.st15{fill:#C2C4C3;}
	.st16{opacity:0.14;enable-background:new    ;}
	.st17{fill:#E6E8E8;}
	.st18{fill:#D1E7F5;}
	.st19{fill:none;stroke:#8DAEE6;stroke-width:1.5;stroke-linecap:round;stroke-linejoin:round;stroke-miterlimit:10;}
	.st20{fill:none;stroke:#E0E9F8;stroke-width:1.5;stroke-linecap:round;stroke-linejoin:round;stroke-miterlimit:10;}
	.st21{fill:#E0E9F8;}
	.st22{fill:#58A6DA;}
	.st23{fill:#8993BE;}
	.st24{fill:#A3D1EE;}
	.st25{fill:#B0BEC5;}
	.st26{fill:#78909C;}
	.st27{fill:#D0D5D8;}
	.st28{fill:#73C073;}
	.st29{fill:#C0C2C2;}
	.st30{fill:#E4E4E4;}
	.st31{fill:#B09C85;}
	.st32{fill:#F0F0F0;}
	.st33{fill:#E3CFBB;}
	.st34{fill:none;stroke:#0C84C6;stroke-miterlimit:10;}
	.st35{fill:#FCFCFC;}
	.st36{fill:#B6E0F4;}
	.st37{fill:#5C5D54;}
	.st38{fill:#4E4F46;}
	.st39{fill:#232531;}
</style>
<g>
	<g>
		<rect x="737.8" y="50.3" class="st0" width="229.1" height="148.1"/>
	</g>
	<g class="st1">
		<rect x="766.6" y="58.5" class="st2" width="23" height="4.1"/>
		<rect x="745.8" y="58.5" class="st3" width="9.5" height="4.1"/>
		<rect x="745.8" y="65.9" class="st3" width="9.5" height="4.1"/>
		<rect x="745.8" y="74.7" class="st3" width="9.5" height="4.1"/>
		<rect x="745.8" y="83.5" class="st3" width="9.5" height="4.1"/>
		<rect x="745.8" y="92.2" class="st3" width="9.5" height="4.1"/>
		<rect x="745.8" y="101" class="st3" width="9.5" height="4.1"/>
		<rect x="794.3" y="58.5" class="st4" width="77" height="4.1"/>
		<g>
			<rect x="774.7" y="65.9" class="st5" width="23" height="4.1"/>
			<rect x="802.4" y="65.9" class="st4" width="77" height="4.1"/>
		</g>
		<g>
			<rect x="788.2" y="74.7" class="st5" width="23" height="4.1"/>
			<rect x="815.9" y="74.7" class="st4" width="77" height="4.1"/>
		</g>
		<g>
			<rect x="801.7" y="83.5" class="st6" width="23" height="4.1"/>
			<rect x="829.4" y="83.5" class="st4" width="77" height="4.1"/>
		</g>
		<g>
			<rect x="788.2" y="92.2" class="st5" width="23" height="4.1"/>
			<rect x="815.9" y="92.2" class="st4" width="117.5" height="4.1"/>
		</g>
		<g>
			<rect x="774.7" y="101" class="st5" width="23" height="4.1"/>
			<rect x="802.4" y="101" class="st4" width="50" height="4.1"/>
		</g>
	</g>
	<g class="st1">
		<rect x="766.6" y="112.5" class="st2" width="23" height="4.1"/>
		<rect x="745.8" y="112.5" class="st3" width="9.5" height="4.1"/>
		<rect x="745.8" y="120" class="st3" width="9.5" height="4.1"/>
		<rect x="745.8" y="128.7" class="st3" width="9.5" height="4.1"/>
		<rect x="745.8" y="137.5" class="st3" width="9.5" height="4.1"/>
		<rect x="745.8" y="146.3" class="st3" width="9.5" height="4.1"/>
		<rect x="745.8" y="155.1" class="st3" width="9.5" height="4.1"/>
		<rect x="794.3" y="112.5" class="st4" width="77" height="4.1"/>
		<g>
			<rect x="774.7" y="120" class="st5" width="23" height="4.1"/>
			<rect x="802.4" y="120" class="st4" width="77" height="4.1"/>
		</g>
		<g>
			<rect x="788.2" y="128.7" class="st5" width="23" height="4.1"/>
			<rect x="815.9" y="128.7" class="st4" width="77" height="4.1"/>
		</g>
		<rect x="766.6" y="166.6" class="st2" width="23" height="4.1"/>
		<rect x="745.8" y="166.6" class="st3" width="9.5" height="4.1"/>
		<rect x="745.8" y="174" class="st3" width="9.5" height="4.1"/>
		<rect x="745.8" y="182.8" class="st3" width="9.5" height="4.1"/>
		<rect x="794.3" y="166.6" class="st4" width="77" height="4.1"/>
		<g>
			<rect x="774.7" y="174" class="st5" width="23" height="4.1"/>
			<rect x="802.4" y="174" class="st4" width="77" height="4.1"/>
		</g>
		<g>
			<rect x="788.2" y="182.8" class="st6" width="23" height="4.1"/>
			<rect x="815.9" y="182.8" class="st4" width="77" height="4.1"/>
		</g>
		<g>
			<rect x="801.7" y="137.5" class="st6" width="23" height="4.1"/>
			<rect x="829.4" y="137.5" class="st4" width="117.5" height="4.1"/>
		</g>
		<g>
			<rect x="788.2" y="146.3" class="st5" width="23" height="4.1"/>
			<rect x="815.9" y="146.3" class="st4" width="77" height="4.1"/>
		</g>
		<g>
			<rect x="774.7" y="155.1" class="st5" width="23" height="4.1"/>
			<rect x="802.4" y="155.1" class="st4" width="77" height="4.1"/>
		</g>
	</g>
</g>
<g>
	<g>
		<rect x="190" y="118.5" class="st7" width="185.8" height="112.5"/>
		<rect x="190" y="118.5" class="st0" width="185.8" height="20.5"/>
		<line class="st8" x1="203" y1="153.4" x2="359.7" y2="216.5"/>
		<line class="st8" x1="359" y1="151.8" x2="203.6" y2="218.1"/>
	</g>
	<circle class="st9" cx="364.5" cy="127.6" r="3.2"/>
	<circle class="st6" cx="354.8" cy="127.6" r="3.2"/>
	<circle class="st2" cx="345.1" cy="127.6" r="3.2"/>
</g>
<g>
	<g>
		<g id="XMLID_22_">
			<g id="XMLID_24_">
				<polygon class="st10" points="422.9,138.8 425.8,141 428.9,140.4 429.3,141.1 428.6,141.6 431.3,142 432.8,143.6 432.3,146.5 
					430,148.6 427.2,147.7 424.8,145.1 420.7,142.3 				"/>
			</g>
			<g id="XMLID_23_">
				<path class="st11" d="M425.5,138.7c-2.6-3-5.2-5.9-7.8-8.9c-1.7-1.9-3.4-3.8-5.1-5.8c-2.1-2.5-0.4-3.9-0.8-7.1
					c-0.9-7-2-14.6-7.1-19.6c-0.5-0.5-1.1-1-1.8-1.1c-1.3-0.3-2.6,0.6-3.2,1.9c-0.6,1.2-0.6,2.6-0.6,3.9c0.1,7.3-0.3,15.8,1.5,22.8
					c0.8,3.2,5.2,5.8,7.6,7.9c5,4.4,10,8.7,15,13.1L425.5,138.7z"/>
			</g>
		</g>
		<g>
			<g id="XMLID_21_">
				<polygon class="st12" points="400.4,266.3 400.4,269.3 408.2,273.2 412.1,269.3 408.2,265.4 407.7,265.4 407.6,266.3 				"/>
			</g>
			<g id="XMLID_20_">
				<polygon class="st12" points="381.1,265.4 380.6,265.4 376.7,269.3 380.6,273.2 388.4,269.3 388.4,266.3 381.2,266.3 				"/>
			</g>
			<g>
				<g id="XMLID_19_">
					<path class="st11" d="M381.2,150.5c1-5.2,1.8-10,1.9-12.6c0.2-7.8,1.2-33.7,1.2-33.7l4.8-9.9h0.9c-0.1,0-0.1,0-0.2,0
						c0.2,0-0.1-1.9-0.2-2.1c-4.2-0.1-9.5,2.2-12.2,5.5c-1.9,2.4-3.1,5.4-4.2,8.3c-3.2,8.2-4.6,15.8-6.2,24.4
						c-1,5.5-1.9,11-2.7,16.4c-0.8,6-1.4,12.1-1.5,18c0,0.7-0.1,2.5-0.2,4.7c-0.2,4.6-0.1,10.8,1.9,11c0.4,0,0.7-0.1,1-0.3
						c2.5-1.2,4.4-2.8,6.6-4.2l0.1-24.1L381.2,150.5z"/>
				</g>
				<g id="XMLID_18_">
					<path class="st11" d="M425.2,175.3c-0.5-5.1-1-10.3-1.6-15.4c-1.2-10.2-2.9-20.4-5.8-30.3c-1.1-3.8-2.3-7.5-3.6-11.2
						c-1.5-4.5-3.1-9.1-4.6-13.6c-1.9-5.6-5.1-9.6-10.7-11.6c-1-0.4-2.1-0.6-3.2-0.8c0,0.1-0.1,0.2-0.1,0.4
						c-0.1,0.5-0.2,1.1-0.6,1.5h3.7c0,0,10.4,37,10.8,43.4c0.1,2.4,0.6,7.7,1.2,13.3l5.7,0.8l0.2,21.3c0.3,0.1,0.6,0.2,0.9,0.3
						c1.8,0.5,3.3,1.8,4.7,2.9C424.6,177.8,425.5,178.5,425.2,175.3z"/>
				</g>
				<g id="XMLID_17_">
					<path class="st11" d="M410.8,151c0.9,8.8,1.8,18.4,1.8,18.4s-4.6,0.1-11.2,0.6c0.5,0,1,0,1.5,0c4.6,0,9.4,1.9,13.8,3.2
						l-0.2-21.3L410.8,151z"/>
				</g>
				<g id="XMLID_16_">
					<path class="st11" d="M379.9,172.7c-3.2,0.2-3.5-0.4-3.5-0.4s2.8-11.6,4.8-21.7l-9,1.3l-0.1,24.1c0.8-0.5,1.6-1,2.4-1.4
						C376.2,173.8,378,173.2,379.9,172.7z"/>
				</g>
				<g>
					<path class="st13" d="M416.7,173.2c-4.4-1.3-9.2-3.3-13.8-3.2c-0.5,0-1,0-1.5,0c-0.4,0-0.8,0.1-1.3,0.1
						c-3.1,0.2-6.5,0.6-10.2,1c-0.2,0-0.4,0-0.5,0.1c-4.6,1-7.6,1.4-9.6,1.5c-1.9,0.5-3.7,1.1-5.4,2c-0.9,0.4-1.6,0.9-2.4,1.4v5
						l8.8,85.4h7.2v0.9l0,0l8-57.3v-0.3l4.4,57.6l0,0v-0.9h7.3l9.2-64.1L416.7,173.2z"/>
				</g>
				<g>
					<path class="st3" d="M410.8,151c-0.5-5.6-1-10.9-1.2-13.3c-0.4-6.4-10.8-43.4-10.8-43.4h-3.7l-0.1,0.1
						c-0.1,0.1-0.2,0.2-0.4,0.2c-0.3,0.1-0.6,0.1-0.9,0c-1.2-0.1-2.4-0.3-3.7-0.4h-0.9l-4.8,9.9c0,0-1,25.9-1.2,33.7
						c-0.1,2.6-0.9,7.4-1.9,12.6c-2,10.1-4.8,21.7-4.8,21.7s0.4,0.6,3.5,0.4c2-0.1,5-0.5,9.6-1.5c0.2,0,0.4,0,0.5-0.1
						c3.6-0.4,7.1-0.8,10.2-1c0.4,0,0.8-0.1,1.3-0.1c6.6-0.5,11.2-0.6,11.2-0.6S411.6,159.8,410.8,151z"/>
				</g>
			</g>
		</g>
		<g>
			<g>
				<path class="st14" d="M401.4,69.1c1,2,1.4,4.3,1.4,6.6c0,0.6,0,1.3,0.5,1.7c0.5,0.4,0,1.2,0.4,0.7c0.4-0.5,1.8-2.2,1.9-2.8
					c0.2-1.5,0.3-3,0.2-4.5c-0.1-1.3-0.3-2.7-1-3.8c-0.5-0.6-1.1-1.1-1.8-1.5c-0.9-0.6-1.9-1.3-3-1.5c-1.9-0.5-3.1,0.2-1.5,1.6
					C399.7,66.6,400.7,67.7,401.4,69.1z"/>
			</g>
			<g>
				<g>
					<path class="st10" d="M388.3,94.3c2.6,0.4,5.2,0.8,7.8,1.2c0.5-2.3,0.9-4.6,1-6.9c2.3-0.3,5-0.9,5.9-3.3
						c0.3-0.7,0.3-1.6,0.4-2.4c0.2-3.3,0.4-6.7,0.6-10c0.1-1.2,0.1-2.3-0.2-3.4c-0.6-1.9-2.3-3.1-3.9-3.9c-4.3-2-9.3-2.2-13.5,0.1
						c-1.1,0.6-2.2,1.5-2.8,2.6c-1,1.8-1,4.1-1,6.2c0,2,0.1,3.9,0.1,5.9c0,2.3,0.2,4.9,1.9,6.1c0.9,0.7,2.1,0.9,2.8,1.7
						C388.7,89.7,387.9,92.3,388.3,94.3z"/>
				</g>
			</g>
			<g>
				<path class="st14" d="M404.3,81.7c0-0.6-0.2-2.5-1.2-1.4c-0.3,0.3-0.3,0.7-0.4,1.1c0,0.4,0,0.8-0.2,1.2
					c-0.3,0.8-1.3,1.2-2.1,1.1c-0.3,0-0.7-0.1-1-0.3c-0.3-0.2-0.5-0.5-0.7-0.7c-0.5-0.7-1-1.3-1.5-2c-0.9-1.1-2.7-0.8-4-0.7
					c-1.4,0.1-2.9,0.5-4.1,1.4c-0.1,0.1-0.2,0.2-0.4,0.3c-0.3,0.2-0.6,0.5-0.9,0.6c-1.1,0.5-2.5-0.2-3.2-1.2
					c-0.3-0.5-0.6-1.1-1.2-1.2c-0.4-0.1-0.9,0.2-1.1,0.6s-0.3,0.9-0.4,1.4c-0.2,1.7-0.1,3.5,0.6,5.1c1.4,3.4,4.5,4,7.6,4.1
					c1.2,0,2.5,0.1,3.7,0.1c2.2,0.1,4.6,0.1,6.6-1.1c1.7-1.1,2.8-3,3.3-5.1C404.1,83.9,404.3,82.8,404.3,81.7z M395.8,85.9
					c-1.2,0.7-2.5,0.7-3.8,0.2c-0.6-0.2-0.3-1.1,0.3-0.9c1.1,0.4,2.1,0.4,3.1-0.2C395.9,84.7,396.3,85.6,395.8,85.9z"/>
			</g>
			<g>
				<path class="st14" d="M405.6,63.6c0.3-0.8,0.5-1.6,0.6-2.4c-0.8,0.2-1.6,0.3-2.4,0.1c0-0.5,0-1,0.1-1.4c0-0.4-5.3-1-5.7-1
					c-4-0.5-7.7-1.1-11.5,1c-3.2,1.7-5.4,4.4-6,8.1c-0.6,3.5,0.3,8.1,2.1,11.1c0-0.9-0.4-3.2-0.1-4c0.2-0.9,0.5-1.7,1-2.5
					c0.9-1.5,2.3-2.8,3.8-3.7c2.4-1.4,5.2-2,8-2.3c2.5-0.2,5.6-0.4,8.1,0.4c1.2,0.4,1.4,0.7,2.2-0.5c0.1-0.2,1.3-2.7,1.2-2.7
					C406.5,63.6,406.1,63.6,405.6,63.6z"/>
			</g>
		</g>
	</g>
	<g>
		<g>
			<polygon class="st15" points="578.5,275.7 528.2,275.2 533.1,236.7 574.4,237.1 			"/>
			<polygon class="st16" points="531.7,247.3 575.3,245.4 576.5,256.8 			"/>
			<path class="st17" d="M420.9,57.3v187c0,1.7,1.4,3.1,3.1,3.1h259.2c1.7,0,3.1-1.4,3.1-3.1v-187c0-1.7-1.4-3.1-3.1-3.1H424
				C422.3,54.1,420.9,55.5,420.9,57.3z"/>
			<path class="st14" d="M420.9,57.9v165.5h265.4V57.9c0-2.3-1.8-4.1-4.1-4.1H425C422.7,53.9,420.9,55.7,420.9,57.9z"/>
			<rect x="427.9" y="61.6" class="st18" width="251.4" height="152.8"/>
			<rect x="513.8" y="270.4" class="st17" width="79.6" height="13.9"/>
		</g>
		<g>
			<g>
				<rect x="427.8" y="60.5" class="st18" width="251.4" height="154.6"/>
				<g>
					<path class="st3" d="M657.8,77.8H450.3c-1.6,0-2.8-1.3-2.8-2.8v-5.8c0-1.6,1.3-2.8,2.8-2.8h207.5c1.6,0,2.8,1.3,2.8,2.8V75
						C660.5,76.6,659.3,77.8,657.8,77.8z"/>
					<g>
						<line class="st19" x1="674" y1="68.6" x2="664.9" y2="68.6"/>
						<line class="st19" x1="674" y1="72.1" x2="664.9" y2="72.1"/>
						<line class="st19" x1="674" y1="75.6" x2="664.9" y2="75.6"/>
					</g>
					<path class="st19" d="M437.4,67.6l-4.1,3.1c-0.1,0.1-0.2,0.4-0.2,0.6v5c0,0.3,0.3,0.6,0.6,0.6h2.4c0.3,0,0.6-0.3,0.6-0.6v-3.2
						c0-0.7,0.4-1.3,1.1-1.4c0.8-0.1,1.5,0.5,1.5,1.3v3.3c0,0.3,0.3,0.6,0.6,0.6h2.4c0.3,0,0.6-0.3,0.6-0.6v-5
						c0-0.2-0.1-0.4-0.2-0.6l-4.1-3.1C438.2,67.3,437.7,67.3,437.4,67.6z"/>
					<g>
						<g>
							<circle class="st20" cx="453.4" cy="71.9" r="2.8"/>
							<line class="st20" x1="456.1" y1="75.1" x2="455.2" y2="74"/>
						</g>
					</g>
					<path class="st21" d="M514.3,75.2h-54.7c-0.4,0-0.7-0.4-0.7-0.7v-4.8c0-0.4,0.4-0.7,0.7-0.7h54.7c0.4,0,0.7,0.4,0.7,0.7v4.8
						C515.1,75,514.7,75.2,514.3,75.2z"/>
					<path class="st2" d="M654.4,68.8l0.7,1.4c0.1,0.3,0.4,0.5,0.8,0.6l1.6,0.2c0.3,0.1,0.4,0.4,0.1,0.6l-1.1,1.1
						c-0.2,0.2-0.4,0.6-0.3,1l0.3,1.6c0.1,0.3-0.2,0.4-0.4,0.4l-1.3-0.7c-0.3-0.1-0.7-0.1-1,0l-1.3,0.7c-0.2,0.1-0.5-0.1-0.4-0.4
						l0.3-1.6c0.1-0.4-0.1-0.7-0.3-1l-1.1-1.1c-0.2-0.2-0.1-0.5,0.1-0.6l1.6-0.2c0.4-0.1,0.7-0.3,0.8-0.6l0.7-1.4
						C653.9,68.6,654.3,68.6,654.4,68.8z"/>
					<g>
						<path class="st22" d="M465.6,69.5h0.5v1.7l0,0c0.1-0.1,0.2-0.3,0.4-0.4c0.1-0.1,0.3-0.1,0.5-0.1c0.4,0,1,0.2,1,1.2v1.6h-0.5
							v-1.6c0-0.4-0.2-0.8-0.6-0.8c-0.3,0-0.6,0.2-0.7,0.5c0,0.1,0,0.1,0,0.2v1.7h-0.5L465.6,69.5L465.6,69.5z"/>
						<path class="st22" d="M469.3,70v0.8h0.7v0.4h-0.7v1.4c0,0.3,0.1,0.5,0.4,0.5c0.1,0,0.2,0,0.3,0v0.4c-0.1,0-0.2,0.1-0.4,0.1
							c-0.2,0-0.4-0.1-0.5-0.2c-0.1-0.1-0.2-0.4-0.2-0.7v-1.5h-0.4v-0.4h0.4v-0.7L469.3,70z"/>
						<path class="st22" d="M471.2,70v0.8h0.7v0.4h-0.7v1.4c0,0.3,0.1,0.5,0.4,0.5c0.1,0,0.2,0,0.3,0v0.4c-0.1,0-0.2,0.1-0.4,0.1
							s-0.4-0.1-0.5-0.2c-0.1-0.1-0.2-0.4-0.2-0.7v-1.5h-0.4v-0.4h0.4v-0.7L471.2,70z"/>
						<path class="st22" d="M472.4,71.7c0-0.4,0-0.6,0-0.9h0.4v0.5l0,0c0.2-0.3,0.5-0.5,1-0.5c0.7,0,1.2,0.6,1.2,1.4
							c0,1-0.6,1.5-1.2,1.5c-0.4,0-0.7-0.2-0.8-0.4l0,0v1.3h-0.5v-2.9H472.4z M472.9,72.4c0,0.1,0,0.1,0,0.2
							c0.1,0.3,0.4,0.6,0.7,0.6c0.5,0,0.8-0.4,0.8-1.1c0-0.5-0.3-1-0.8-1c-0.3,0-0.7,0.2-0.8,0.6c0,0.1,0,0.1,0,0.2L472.9,72.4
							L472.9,72.4z"/>
						<path class="st22" d="M475.6,73c0.1,0.1,0.4,0.2,0.7,0.2c0.4,0,0.5-0.2,0.5-0.4c0-0.2-0.1-0.4-0.5-0.5
							c-0.5-0.2-0.7-0.4-0.7-0.8s0.4-0.8,0.9-0.8c0.3,0,0.5,0.1,0.7,0.2l-0.1,0.4c-0.1-0.1-0.3-0.2-0.6-0.2c-0.3,0-0.5,0.2-0.5,0.4
							c0,0.2,0.2,0.3,0.5,0.5c0.5,0.2,0.7,0.4,0.7,0.8c0,0.5-0.4,0.8-1,0.8c-0.3,0-0.6-0.1-0.8-0.2L475.6,73z"/>
						<path class="st22" d="M477.8,71.2c0-0.2,0.1-0.4,0.3-0.4s0.3,0.1,0.3,0.4c0,0.2-0.1,0.4-0.3,0.4
							C477.9,71.6,477.8,71.4,477.8,71.2z M477.8,73.2c0-0.2,0.1-0.4,0.3-0.4s0.3,0.1,0.3,0.4c0,0.2-0.1,0.4-0.3,0.4
							C477.9,73.6,477.8,73.4,477.8,73.2z"/>
						<path class="st22" d="M478.6,73.7l1.6-4.1h0.4l-1.6,4.1H478.6z"/>
						<path class="st22" d="M480.6,73.7l1.6-4.1h0.4l-1.6,4.1H480.6z"/>
						<path class="st22" d="M483.1,70.8l0.4,1.4c0.1,0.3,0.2,0.6,0.2,0.9l0,0c0.1-0.3,0.2-0.6,0.2-0.9l0.4-1.4h0.4l0.4,1.4
							c0.1,0.3,0.2,0.6,0.2,0.9l0,0c0-0.3,0.1-0.6,0.2-0.9l0.4-1.4h0.5l-0.9,2.7H485l-0.4-1.3c-0.1-0.3-0.2-0.6-0.2-0.9l0,0
							c-0.1,0.3-0.2,0.6-0.2,0.9l-0.4,1.3h-0.5l-0.8-2.7H483.1z"/>
						<path class="st22" d="M487.4,70.8l0.4,1.4c0.1,0.3,0.2,0.6,0.2,0.9l0,0c0.1-0.3,0.2-0.6,0.2-0.9l0.4-1.4h0.4l0.4,1.4
							c0.1,0.3,0.2,0.6,0.2,0.9l0,0c0-0.3,0.1-0.6,0.2-0.9l0.4-1.4h0.5l-0.9,2.7h-0.5l-0.4-1.3c-0.1-0.3-0.2-0.6-0.2-0.9l0,0
							c-0.1,0.3-0.2,0.6-0.2,0.9l-0.4,1.3h-0.5l-0.8-2.7H487.4z"/>
						<path class="st22" d="M491.6,70.8l0.4,1.4c0.1,0.3,0.2,0.6,0.2,0.9l0,0c0.1-0.3,0.2-0.6,0.2-0.9l0.4-1.4h0.4l0.4,1.4
							c0.1,0.3,0.2,0.6,0.2,0.9l0,0c0-0.3,0.1-0.6,0.2-0.9l0.4-1.4h0.5l-0.9,2.7h-0.5l-0.4-1.3c-0.1-0.3-0.2-0.6-0.2-0.9l0,0
							c-0.1,0.3-0.2,0.6-0.2,0.9l-0.4,1.3h-0.5l-0.8-2.7H491.6z"/>
					</g>
				</g>
				<rect x="427.8" y="97.2" class="st2" width="251.4" height="30.6"/>
				<rect x="427.8" y="85.2" class="st17" width="251.4" height="11.9"/>
				<rect x="481.7" y="140.3" class="st7" width="28.2" height="28.2"/>
				<rect x="519.5" y="140.3" class="st2" width="28.2" height="28.2"/>
				<rect x="557.1" y="140.3" class="st6" width="28.2" height="28.2"/>
				<rect x="595" y="140.3" class="st23" width="28.2" height="28.2"/>
				<rect x="481.6" y="176" class="st24" width="28.4" height="3.7"/>
				<rect x="484.2" y="183.9" class="st24" width="23.3" height="3.7"/>
				<rect x="481.6" y="191.6" class="st24" width="28.4" height="3.7"/>
				<rect x="519.4" y="176.1" class="st24" width="28.4" height="3.7"/>
				<rect x="522" y="184" class="st24" width="23.3" height="3.7"/>
				<rect x="519.4" y="191.7" class="st24" width="28.4" height="3.7"/>
				<rect x="557" y="176.2" class="st24" width="28.4" height="3.7"/>
				<rect x="559.6" y="184.1" class="st24" width="23.3" height="3.7"/>
				<rect x="560.7" y="191.6" class="st24" width="21" height="3.7"/>
				<rect x="594.9" y="176.2" class="st24" width="28.4" height="3.7"/>
				<rect x="597.5" y="184.1" class="st24" width="23.3" height="3.7"/>
				<rect x="594.9" y="191.8" class="st24" width="28.4" height="3.7"/>
				<path class="st6" d="M503.8,204.9h-16c-1.4,0-2.5-1.1-2.5-2.5l0,0c0-1.4,1.1-2.5,2.5-2.5h16c1.4,0,2.5,1.1,2.5,2.5l0,0
					C506.3,203.8,505.2,204.9,503.8,204.9z"/>
				<path class="st6" d="M541.6,204.9h-16c-1.4,0-2.5-1.1-2.5-2.5l0,0c0-1.4,1.1-2.5,2.5-2.5h16c1.4,0,2.5,1.1,2.5,2.5l0,0
					C544.1,203.8,543,204.9,541.6,204.9z"/>
				<path class="st6" d="M579.2,204.9h-16c-1.4,0-2.5-1.1-2.5-2.5l0,0c0-1.4,1.1-2.5,2.5-2.5h16c1.4,0,2.5,1.1,2.5,2.5l0,0
					C581.7,203.8,580.6,204.9,579.2,204.9z"/>
				<path class="st6" d="M617.1,204.9h-16c-1.4,0-2.5-1.1-2.5-2.5l0,0c0-1.4,1.1-2.5,2.5-2.5h16c1.4,0,2.5,1.1,2.5,2.5l0,0
					C619.6,203.8,618.4,204.9,617.1,204.9z"/>
			</g>
			<g>
				<path class="st25" d="M486.1,96.8h-53.7v-6.2c0-1.8,1.5-3.3,3.3-3.3H486L486.1,96.8L486.1,96.8z"/>
				<rect x="437.4" y="89.4" class="st2" width="3.6" height="3.6"/>
				<rect x="444.7" y="89.8" class="st26" width="36.2" height="2.7"/>
				<g>
					<path class="st27" d="M539.1,95.2h-50.3v-4.6c0-1.8,1.5-3.3,3.3-3.3h50.4v4.6C542.5,93.7,541,95.2,539.1,95.2z"/>
					<rect x="493.7" y="89.4" class="st7" width="3.6" height="3.6"/>
					<rect x="501.1" y="89.8" class="st26" width="36.2" height="2.7"/>
				</g>
				<g>
					<path class="st27" d="M595.4,95.2H545v-4.6c0-1.8,1.5-3.3,3.3-3.3h50.4v4.6C598.7,93.7,597.2,95.2,595.4,95.2z"/>
					<rect x="549.9" y="89.4" class="st28" width="3.6" height="3.6"/>
					<rect x="557.3" y="89.8" class="st26" width="36.2" height="2.7"/>
				</g>
			</g>
		</g>
	</g>
	<g>
		<g>
			<path class="st14" d="M450.1,288.8H336.3c-1.2,0-2.1-0.9-2.1-2.1V140.1c0-1.2,0.9-2.1,2.1-2.1h113.8c1.2,0,2.1,0.9,2.1,2.1v146.6
				C452.3,287.9,451.3,288.8,450.1,288.8z"/>
			<rect x="340.4" y="144.6" class="st18" width="105.7" height="130.6"/>
			<circle class="st3" cx="393.2" cy="281.9" r="3.7"/>
		</g>
		<rect x="340.4" y="153.8" class="st2" width="105.7" height="30.6"/>
		<rect x="350" y="191.1" class="st7" width="33.8" height="33.8"/>
		<rect x="349.9" y="233.8" class="st24" width="33.9" height="4.4"/>
		<rect x="353" y="243.3" class="st24" width="27.8" height="4.4"/>
		<rect x="349.9" y="252.5" class="st24" width="33.9" height="4.4"/>
		<path class="st6" d="M376.5,268.4h-19.1c-1.7,0-3-1.3-3-3l0,0c0-1.7,1.3-3,3-3h19.1c1.7,0,3,1.3,3,3l0,0
			C379.4,267,378.1,268.4,376.5,268.4z"/>
		<rect x="402.5" y="191.1" class="st2" width="33.8" height="33.8"/>
		<rect x="402.4" y="234" class="st24" width="33.9" height="4.4"/>
		<rect x="405.5" y="243.4" class="st24" width="27.8" height="4.4"/>
		<rect x="402.4" y="252.6" class="st24" width="33.9" height="4.4"/>
		<path class="st6" d="M428.9,268.4h-19.1c-1.7,0-3-1.3-3-3l0,0c0-1.7,1.3-3,3-3h19.1c1.7,0,3,1.3,3,3l0,0
			C431.9,267,430.6,268.4,428.9,268.4z"/>
	</g>
	<g>
		<g>
			<g>
				<g>
					<path class="st14" d="M852.9,271.7h-199V142.8c0-2.2,1.8-4,4-4H849c2.2,0,4,1.8,4,4L852.9,271.7L852.9,271.7z"/>
				</g>
				<rect x="661.8" y="148" class="st18" width="183.2" height="116.3"/>
			</g>
		</g>
		<g>
			<g>
				<path class="st29" d="M852.9,288.8l-199-0.6c-4.8,0-9.3-2.5-11.8-6.7l0,0l222.7,0.7l0,0C862.2,286.3,857.7,288.9,852.9,288.8z"
					/>
				<path class="st17" d="M863.6,283.3H643.2c-0.8,0-1.4-0.6-1.4-1.4v-9.1c0-0.8,0.6-1.4,1.4-1.4h220.4c0.8,0,1.4,0.6,1.4,1.4v9.1
					C865,282.7,864.4,283.3,863.6,283.3z"/>
			</g>
			<path class="st16" d="M770.2,279.1h-33.6c-0.9,0-1.6-0.7-1.6-1.6v-1c0-0.9,0.7-1.6,1.6-1.6h33.6c0.9,0,1.6,0.7,1.6,1.6v1
				C771.8,278.4,771.1,279.1,770.2,279.1z"/>
		</g>
		<g>
			<g>
				<rect x="661.2" y="148.2" class="st18" width="184.5" height="113.4"/>
				<g>
					<path class="st3" d="M829.9,160.8H677.7c-1.1,0-2-0.9-2-2v-4.3c0-1.1,0.9-2,2-2h152.2c1.1,0,2,0.9,2,2v4.3
						C831.9,160,831,160.8,829.9,160.8z"/>
					<g>
						<line class="st19" x1="841.8" y1="154.1" x2="835.1" y2="154.1"/>
						<line class="st19" x1="841.8" y1="156.7" x2="835.1" y2="156.7"/>
						<line class="st19" x1="841.8" y1="159.2" x2="835.1" y2="159.2"/>
					</g>
					<path class="st19" d="M668.2,153.4l-3,2.2c-0.1,0.1-0.2,0.3-0.2,0.4v3.7c0,0.2,0.2,0.4,0.4,0.4h1.7c0.2,0,0.4-0.2,0.4-0.4v-2.4
						c0-0.5,0.3-1,0.8-1c0.6-0.1,1.1,0.4,1.1,1v2.4c0,0.2,0.2,0.4,0.4,0.4h1.7c0.2,0,0.4-0.2,0.4-0.4V156c0-0.2-0.1-0.3-0.2-0.4
						l-3-2.2C668.8,153.1,668.4,153.1,668.2,153.4z"/>
					<g>
						<g>
							<circle class="st20" cx="679.9" cy="156.5" r="2"/>
							<line class="st20" x1="681.9" y1="158.9" x2="681.2" y2="158.1"/>
						</g>
					</g>
					<path class="st21" d="M724.7,159h-40.1c-0.3,0-0.5-0.3-0.5-0.5v-3.6c0-0.3,0.3-0.5,0.5-0.5h40.1c0.3,0,0.5,0.3,0.5,0.5v3.6
						C725.2,158.8,724.9,159,724.7,159z"/>
					<path class="st2" d="M827.4,154.3l0.5,1c0.1,0.2,0.3,0.4,0.6,0.4l1.1,0.2c0.2,0.1,0.3,0.3,0.1,0.4l-0.8,0.8
						c-0.2,0.2-0.3,0.4-0.2,0.7l0.2,1.1c0.1,0.2-0.2,0.3-0.3,0.3l-1-0.5c-0.2-0.1-0.5-0.1-0.8,0l-1,0.5c-0.2,0.1-0.4-0.1-0.3-0.3
						l0.2-1.1c0.1-0.3-0.1-0.5-0.2-0.7l-0.8-0.8c-0.2-0.2-0.1-0.4,0.1-0.4l1.1-0.2c0.3-0.1,0.5-0.2,0.6-0.4l0.5-1
						C827.1,154.1,827.3,154.1,827.4,154.3z"/>
					<g>
						<path class="st22" d="M688.9,154.8h0.4v1.3l0,0c0.1-0.1,0.1-0.2,0.3-0.3c0.1-0.1,0.2-0.1,0.4-0.1c0.3,0,0.7,0.2,0.7,0.9v1.2
							h-0.4v-1.2c0-0.3-0.1-0.6-0.5-0.6c-0.2,0-0.4,0.2-0.5,0.4c0,0,0,0.1,0,0.2v1.2h-0.4V154.8z"/>
						<path class="st22" d="M691.6,155.1v0.6h0.5v0.3h-0.5v1.1c0,0.2,0.1,0.4,0.3,0.4c0.1,0,0.2,0,0.2,0v0.3c-0.1,0-0.2,0.1-0.3,0.1
							c-0.2,0-0.3-0.1-0.4-0.2c-0.1-0.1-0.1-0.3-0.1-0.5v-1.1H691v-0.3h0.3v-0.5L691.6,155.1z"/>
						<path class="st22" d="M693,155.1v0.6h0.5v0.3H693v1.1c0,0.2,0.1,0.4,0.3,0.4c0.1,0,0.2,0,0.2,0v0.3c-0.1,0-0.2,0.1-0.3,0.1
							c-0.2,0-0.3-0.1-0.4-0.2c-0.1-0.1-0.1-0.3-0.1-0.5v-1.1h-0.3v-0.3h0.3v-0.5L693,155.1z"/>
						<path class="st22" d="M693.9,156.4c0-0.3,0-0.5,0-0.7h0.3v0.3l0,0c0.1-0.2,0.4-0.4,0.7-0.4c0.5,0,0.9,0.4,0.9,1
							c0,0.7-0.4,1.1-0.9,1.1c-0.3,0-0.5-0.1-0.6-0.3l0,0v1.1h-0.4V156.4z M694.3,156.9c0,0.1,0,0.1,0,0.1c0.1,0.3,0.3,0.4,0.5,0.4
							c0.4,0,0.6-0.3,0.6-0.8c0-0.4-0.2-0.7-0.6-0.7c-0.2,0-0.5,0.2-0.6,0.5v0.1L694.3,156.9L694.3,156.9z"/>
						<path class="st22" d="M696.2,157.3c0.1,0.1,0.3,0.1,0.5,0.1c0.3,0,0.4-0.1,0.4-0.3s-0.1-0.3-0.4-0.4c-0.4-0.1-0.5-0.3-0.5-0.6
							s0.3-0.6,0.7-0.6c0.2,0,0.4,0.1,0.5,0.1l-0.1,0.3c-0.1,0-0.2-0.1-0.4-0.1s-0.3,0.1-0.3,0.3s0.1,0.2,0.4,0.3
							c0.3,0.1,0.5,0.3,0.5,0.6c0,0.4-0.3,0.6-0.8,0.6c-0.2,0-0.4-0.1-0.6-0.1L696.2,157.3z"/>
						<path class="st22" d="M697.8,156c0-0.2,0.1-0.3,0.2-0.3c0.1,0,0.2,0.1,0.2,0.3c0,0.1-0.1,0.3-0.2,0.3S697.8,156.2,697.8,156z
							 M697.8,157.5c0-0.2,0.1-0.3,0.2-0.3c0.1,0,0.2,0.1,0.2,0.3c0,0.1-0.1,0.3-0.2,0.3C697.9,157.7,697.8,157.6,697.8,157.5z"/>
						<path class="st22" d="M698.5,157.9l1.2-3h0.3l-1.2,3H698.5z"/>
						<path class="st22" d="M699.9,157.9l1.2-3h0.3l-1.2,3H699.9z"/>
						<path class="st22" d="M701.8,155.7l0.3,1c0.1,0.2,0.1,0.4,0.1,0.6l0,0c0-0.2,0.1-0.4,0.2-0.6l0.3-1h0.3l0.3,1
							c0.1,0.2,0.1,0.5,0.2,0.7l0,0c0-0.2,0.1-0.4,0.2-0.7l0.3-1h0.4l-0.6,2h-0.3l-0.3-1c-0.1-0.2-0.1-0.4-0.2-0.7l0,0
							c0,0.2-0.1,0.4-0.2,0.7l-0.3,1h-0.3l-0.6-2H701.8z"/>
						<path class="st22" d="M704.9,155.7l0.3,1c0.1,0.2,0.1,0.4,0.1,0.6l0,0c0-0.2,0.1-0.4,0.2-0.6l0.3-1h0.3l0.3,1
							c0.1,0.2,0.1,0.5,0.2,0.7l0,0c0-0.2,0.1-0.4,0.2-0.7l0.3-1h0.4l-0.6,2h-0.3l-0.3-1c-0.1-0.2-0.1-0.4-0.2-0.7l0,0
							c0,0.2-0.1,0.4-0.2,0.7l-0.3,1h-0.3l-0.6-2H704.9z"/>
						<path class="st22" d="M708,155.7l0.3,1c0.1,0.2,0.1,0.4,0.1,0.6l0,0c0-0.2,0.1-0.4,0.2-0.6l0.3-1h0.3l0.3,1
							c0.1,0.2,0.1,0.5,0.2,0.7l0,0c0-0.2,0.1-0.4,0.2-0.7l0.3-1h0.4l-0.6,2h-0.3l-0.3-1c-0.1-0.2-0.1-0.4-0.2-0.7l0,0
							c0,0.2-0.1,0.4-0.2,0.7l-0.3,1h-0.3l-0.6-2H708z"/>
					</g>
				</g>
				<rect x="661.2" y="175.1" class="st2" width="184.5" height="22.5"/>
				<rect x="661.2" y="166.3" class="st17" width="184.5" height="8.7"/>
				<rect x="684.1" y="203.4" class="st7" width="25.3" height="25.3"/>
				<rect x="722" y="203.4" class="st2" width="25.3" height="25.3"/>
				<rect x="759.8" y="203.4" class="st6" width="25.3" height="25.3"/>
				<rect x="797.8" y="203.4" class="st23" width="25.3" height="25.3"/>
				<rect x="684" y="235.5" class="st24" width="25.5" height="3.3"/>
				<rect x="686.3" y="242.6" class="st24" width="20.9" height="3.3"/>
				<rect x="684" y="249.5" class="st24" width="25.5" height="3.3"/>
				<rect x="722" y="235.6" class="st24" width="25.5" height="3.3"/>
				<rect x="724.3" y="242.6" class="st24" width="20.9" height="3.3"/>
				<rect x="722" y="249.5" class="st24" width="25.5" height="3.3"/>
				<rect x="759.7" y="235.7" class="st24" width="25.5" height="3.3"/>
				<rect x="762" y="242.7" class="st24" width="20.9" height="3.3"/>
				<rect x="763" y="249.5" class="st24" width="18.8" height="3.3"/>
				<rect x="797.7" y="235.7" class="st24" width="25.5" height="3.3"/>
				<rect x="800" y="242.7" class="st24" width="20.9" height="3.3"/>
				<rect x="797.7" y="249.6" class="st24" width="25.5" height="3.3"/>
				<path class="st6" d="M703.9,261.4h-14.3c-1.2,0-2.2-1-2.2-2.2l0,0c0-1.2,1-2.2,2.2-2.2h14.3c1.2,0,2.2,1,2.2,2.2l0,0
					C706.2,260.4,705.2,261.4,703.9,261.4z"/>
				<path class="st6" d="M741.9,261.4h-14.3c-1.2,0-2.2-1-2.2-2.2l0,0c0-1.2,1-2.2,2.2-2.2h14.3c1.2,0,2.2,1,2.2,2.2l0,0
					C744.1,260.4,743.1,261.4,741.9,261.4z"/>
				<path class="st6" d="M779.7,261.4h-14.3c-1.2,0-2.2-1-2.2-2.2l0,0c0-1.2,1-2.2,2.2-2.2h14.3c1.2,0,2.2,1,2.2,2.2l0,0
					C781.9,260.4,780.9,261.4,779.7,261.4z"/>
				<path class="st6" d="M817.6,261.4h-14.3c-1.2,0-2.2-1-2.2-2.2l0,0c0-1.2,1-2.2,2.2-2.2h14.3c1.2,0,2.2,1,2.2,2.2l0,0
					C819.9,260.4,818.9,261.4,817.6,261.4z"/>
			</g>
			<g>
				<path class="st25" d="M703.9,174.8h-39.4v-4.6c0-1.3,1.1-2.4,2.4-2.4h37V174.8L703.9,174.8z"/>
				<rect x="668.2" y="169.4" class="st2" width="2.6" height="2.6"/>
				<rect x="673.6" y="169.7" class="st26" width="26.6" height="2"/>
				<g>
					<path class="st27" d="M742.8,173.6h-37v-3.4c0-1.3,1.1-2.4,2.4-2.4h37v3.4C745.3,172.5,744.2,173.6,742.8,173.6z"/>
					<rect x="709.5" y="169.4" class="st7" width="2.6" height="2.6"/>
					<rect x="715" y="169.7" class="st26" width="26.6" height="2"/>
				</g>
				<g>
					<path class="st27" d="M784.1,173.6h-37v-3.4c0-1.3,1.1-2.4,2.4-2.4h37v3.4C786.6,172.5,785.4,173.6,784.1,173.6z"/>
					<rect x="750.8" y="169.4" class="st28" width="2.6" height="2.6"/>
					<rect x="756.2" y="169.7" class="st26" width="26.6" height="2"/>
				</g>
			</g>
		</g>
	</g>
	<g>
		<path class="st2" d="M558.3,46.7c1.3-0.9,2.8-1.2,4.3-1.4c7.6-1.1,15.2-2,22.9-2.5c11.7-0.8,23.8-0.9,34.7,4.1
			c1.8,0.8,3.9,2.5,3.4,4.8c-0.4,1.9-2.2,2.6-3.8,2.9c-15.5,3.5-31.3,2.9-47,2.4C569.9,57,549,53.3,558.3,46.7z"/>
		<g>
			<path class="st10" d="M588.8,49.3c0.3-0.1,0.6-0.3,0.8-0.6c0.1-0.1,0.1-0.1,0.1-0.2c0-0.1,0-0.2,0-0.3c-0.1-0.4-1.1-3.2-0.9-3.3
				c1.8-1,3.3-2.7,4.2-4.4c1.6-3.2,1.7-6.9,1.4-10.3c-0.5-5-2.2-10.4-6.8-12.2c-3.5-1.4-8,0.1-10.8,2.8c-3.7,3.4-3.1,9-2.3,13.3
				c0.6,3.1,1.9,6.1,4,8.4c1.1,1.2,2.4,2.1,3.9,2.7c0.7,0.3,1.4,0.2,1.6,0.9c0.3,0.9,0.1,2.2,0.2,3.1c0,0.2,0,0.3,0.2,0.4
				c0.1,0.1,0.2,0.1,0.3,0.1c0.8,0,1.5,0,2.3,0C587.6,49.6,588.2,49.5,588.8,49.3z"/>
			<path class="st14" d="M589.7,24.7c1.8,1.1,3.6,2.8,3.2,4.9c0.9-0.5,2.1,0.4,2.2,1.5c0.1,1-0.4,2-1.1,2.9c1.1,0.2,2.1-0.6,2.6-1.5
				c0.5-1,0.5-2.1,0.5-3.1c0.1-3.2-0.1-6.4-1.3-9.3s-3.7-5.5-6.8-6c-1-0.2-1.9-0.1-2.9,0c-0.8,0.1-1.6,0.2-2.3,0.6
				C578.3,17.8,587.4,23.3,589.7,24.7z"/>
			<path class="st14" d="M577.3,31.2c-1.3,2.5-1.6,5.5-1.6,8.3c0,1.9,0.8,3.9-1.7,3.3c-2.1-0.6-4.7-3.1-6.4-4.4
				c-0.7-0.5-1.4-1.1-1.7-1.9c-0.3-0.7-0.3-1.4-0.4-2.1c-0.1-3.5-0.4-8,0.8-11.2c1.3-3.4,3.8-6.1,6.6-8.2c3.9-3,8.4-5,13.2-2.3
				c1,0.6,1.9,1.3,2.8,2.1c2.1,1.7-0.5,3.7-1.6,5.2c-2.6,3.7-6.6,6.3-9.3,10C577.9,30.2,577.6,30.7,577.3,31.2z"/>
		</g>
		<g>
			<path class="st10" d="M597.9,62.1c0.2,0,0.4,0.1,0.6,0.2c0.5,0.4,0.3,1.1,0.5,1.7c0.1,0.4,0.3,0.7,0.5,1.1
				c0.4,0.6,0.7,1.1,1.1,1.7c0.1,0.1,0.1,0.2,0.2,0.3c0.1,0.1,0.2,0.1,0.3,0.1c1.1,0.1,2.2-0.2,3-0.9c0.8-0.7,1.1-1.8,1.2-2.8
				c0.1-0.7,0-1.3-0.1-2c0-0.2-0.1-0.4-0.2-0.6c-0.1-0.1-0.2-0.2-0.4-0.3c-0.9-0.6-2-0.9-3-1c-0.6-0.1-1.2-0.1-1.8-0.3
				c-0.4-0.2-0.7-0.4-1.1-0.7c-0.7-0.5-1.4-1-2.2-1.4c-0.2-0.1-0.8,3.3-0.8,3.7C595.6,62.2,596.7,61.9,597.9,62.1z"/>
			<path class="st2" d="M562.3,41.9c-0.9-0.1-1.7-0.2-2.5-0.2c-0.9,0-1.9-0.1-2.7,0.2s-1.6,0.8-2.2,1.3c-2.9,2.5-6,7.3-2.7,10.5
				c1,1,2.4,1.4,3.7,1.8c3.7,1.1,7.5,1.8,11.3,2.5c10.1,1.9,20.2,3.7,30.3,5.6c0.6-2.1,1.3-4.2,1.9-6.3c0.5-1.7-13.7-8.4-15.4-9.1
				C577.3,45.3,569.5,42.7,562.3,41.9z"/>
		</g>
	</g>
	<g>
		<g>
			<polygon class="st14" points="894.7,266.8 897.5,269.2 895,278.7 892.1,278.7 890.3,271.8 892.6,266.3 			"/>
			<polygon class="st11" points="859.4,181.3 880,185.2 868.2,226.5 893.1,266.7 890.3,271.8 854.5,233.7 851.2,224.3 853.5,186.1 
							"/>
		</g>
		<g>
			<polygon class="st14" points="876.7,276.1 876.8,279.9 875.8,284.6 880.7,285.2 883.2,280.7 883.5,277.4 			"/>
			<polygon class="st11" points="895.6,181.3 890.2,219.6 883.5,277.4 876.5,276.9 873.1,218.5 875.2,181.5 			"/>
		</g>
		<path class="st6" d="M845.4,191.8c-0.4,1.7-0.9,3.4-1.4,5.1c-0.1,0.4-0.2,0.8-0.1,1.1c0.1,0.3,0.4,0.5,0.7,0.6
			c3.4,2,7.7,2.5,11.4,1.2c1.8-0.6,3.5-1.6,5.4-2.2c3.1-0.9,6.4-0.4,9.6-0.2c3.2,0.2,5.9-0.6,9-0.9c7.5-0.6,9.5-1,16.6,1.2
			c0-13.4,2.7-23.8,0.7-36.4c-2-12.5-4-25-6.1-37.4c-0.3-2.1-0.7-4.3-1.6-6.1c-3.9-8.4-13.2-10-21.4-7.6c-4.2,1.2-7.5,5.9-9.6,9.6
			c-2.6,4.7-4.1,10-5.1,15.2c-3.3,16.4-3.4,33.3-6.6,49.6C846.5,187.1,846,189.5,845.4,191.8z"/>
		<g>
			<g>
				<g>
					<g>
						<path class="st10" d="M873.2,112c0.1,0.2,0.2,0.3,0.3,0.5c0.5,0.6,1.3,1,2.1,1.2c1,0.2,2.1,0.1,3.2,0c1.4-0.2,1.4-1,1.7-2.3
							c0.3-1.4,0.5-2.8,0.7-4.2c2-0.2,4.5-0.6,5.4-2.7c0.3-0.7,0.4-1.4,0.4-2.1c0.3-3,0.6-6,0.9-9c0.1-1,0.2-2.1-0.1-3.1
							c-0.5-1.7-1.9-2.9-3.4-3.7c-3.7-2-8.2-2.3-12-0.4c-1,0.5-2,1.2-2.6,2.2c-1,1.6-1.1,3.6-1.1,5.5c0,1.8-0.1,3.5-0.1,5.3
							c0,2,0,4.4,1.5,5.6c0.8,0.6,1.8,0.8,2.4,1.6c0.8,1,0.6,2.4,0.6,3.6C873.1,110.8,873,111.4,873.2,112z"/>
					</g>
					<path class="st14" d="M884.7,89.9c0.1,0.2,0.2,0.3,0.2,0.5c0.3,1,0,2,0.2,2.9c0.4,1.5,2.1,2.5,2.2,4.1c0.1,1.3-0.8,2.4-1,3.7
						c-0.2,1.4,0.6,2.8,0.4,4.1c-0.2,1.2-1.1,2.8-1.9,3.7c0.2-0.3,2.2,0,2.8-0.3c0.8-0.4,0.9-0.7,1.2-1.5s0.2-1.6,0.6-2.4
						c0.5-1,1.5-1.7,1.9-2.8c0.5-1.5-0.1-3.1,0-4.7c0.3-2.4,2.5-4.4,1.9-6.7c-0.3-1.4-1.6-2.3-2.2-3.5c-0.5-0.9-0.6-2-0.9-3
						c-0.3-1-0.9-2-1.9-2.4c-0.6-0.2-1.2-0.2-1.7-0.3c-1-0.3-1.8-1-2.7-1.4c-1.3-0.6-3.9,0.6-4.7,1.8c-0.9,1.1-0.5,2.1,0.2,3.2
						C880.5,86.5,883.7,87.9,884.7,89.9z"/>
				</g>
				<path class="st14" d="M865.6,81.7c-0.9,0.5-1.9,0.9-2.7,1.6c-1.6,1.3-2,3.4-2.2,5.5c-0.2,1.8-1.1,3.3-1,5.2
					c0,1.3,0.5,2.6,1.4,3.4c1.2,1,3.2,1.3,3.6,2.8c0.5,1.6-1.3,3.5-0.4,5c0.5,0.8,1.6,1,2.3,1.6c0.8,0.6,1.2,1.7,1.7,2.6
					s1.2,1.9,2.3,2c0.2-1.6,0.3-2.8-0.3-4.4c-0.3-0.9-1.4-2.5-0.4-3.4c0.6-0.7,2-0.9,2.1-1.8c0-0.4-0.2-0.8-0.5-1.2
					c-0.8-1.5-0.8-3.4,0-5s2.2-2.7,3.8-3.4c1.9-0.8,1.6-1.2,2.3-2.9c0.6-1.6,1.5-1.9,3-2.4c1.3-0.4,1.8-0.7,2.3-1.9
					c0.4-0.9,0.9-1.9,0.5-2.9c-0.3-0.8-1-1.4-1.7-2c-1.4-1.2-3-2.5-4.8-2.5c-1,0-2,0.4-3.1,0.4c-0.7,0-1.4-0.2-2-0.3
					c-1.2-0.1-2.4,0.1-3.4,0.8c-1,0.6-1,1.4-1.6,2.3C866.5,81,866.1,81.4,865.6,81.7z"/>
				<path class="st14" d="M870.2,75.4c0.3-1.1,0.2-2.6-0.8-3c-0.6-0.2-1.2-0.1-1.8-0.2c-1.3-0.4-1.6-1.9-2.2-3.1
					c-0.1-0.2-0.2-0.4-0.4-0.4c-0.2-0.1-0.6-0.1-0.8,0c-1.3,0.1-2.2-1.3-3.3-1.8c-1.5-0.7-3.4,0.1-4,1.6c-0.2,0.6-0.2,1.3-0.5,1.9
					c-0.9,2.5-4.7,3.3-5,6c-0.2,1.8,1.4,3.6,0.6,5.2c-0.5,1-1.9,1.7-1.9,2.8c0,0.7,0.8,1.3,1.5,1.3s1.4-0.3,2-0.8
					c0.9-0.7,1.7-1.6,2.6-2.4c0.9-0.8,2.1-1.3,3.2-1.1c1.1,0.2,2.1,1.2,3.2,1.1c0.9-0.1,1.6-0.8,2.5-1c0.8-0.2,1.7,0.2,2.5,0.3
					c0.8,0.1,1.9-0.3,2-1.1c0-0.2,0-0.4,0.1-0.6c0.2-0.5,1.2-0.4,1.4-1c-0.4-0.7-1-0.5-1.3-1.4C869.8,77,870.1,76.1,870.2,75.4z"/>
			</g>
		</g>
		<g>
			<g>
				<path class="st30" d="M887.4,149.1c0-0.1-0.1-0.1-0.2-0.2c-0.1,0-0.2-0.1-0.3-0.1c-0.9-0.3-1.9-0.4-2.9-0.5
					c-1.6-0.1-3.1-0.2-4.7-0.2c-1.6,0-3.1,0-4.7,0.2c-0.9,0.1-2,0.2-2.9,0.5c-0.3,0.1-0.6,0.2-0.5,0.5c0,0.1,0,0.1,0,0.2
					c0,0.2,0,0.4,0,0.6c0,0.6,0,1.2,0,1.8c0,0.8,0,1.6,0,2.4c0,0.9,0,1.8,0,2.7s0,1.9,0,2.8c0,0.9,0,1.8,0,2.7c0,0.8,0,1.6,0,2.4
					c0,0.6,0,1.2,0,1.8c0,0.2,0,0.4,0,0.6c0,0.3,0,0.4,0.2,0.6c0.1,0.1,0.2,0.1,0.3,0.2c0.3,0.1,0.7,0.2,1.1,0.3
					c1.3,0.2,2.5,0.3,3.8,0.4c0.9,0,1.8,0.1,2.8,0.1c4.4,0,8-0.4,8-1v-0.1l0,0c0,0,0,0,0-0.1c0-0.3,0-0.7,0-1c0-0.6,0-1.2,0-1.8
					c0-0.8,0-1.6,0-2.4c0-0.9,0-1.8,0-2.7s0-1.9,0-2.8c0-0.9,0-1.8,0-2.7c0-0.8,0-1.6,0-2.3c0-0.6,0-1.2,0-1.8c0-0.2,0-0.4,0-0.6
					C887.4,149.4,887.5,149.2,887.4,149.1z"/>
				<ellipse class="st31" cx="879.4" cy="149.2" rx="7.9" ry="1"/>
				<g>
					<path class="st14" d="M879.1,148.6c-3.7,0-6.7,0.4-7,1c0.9,0.3,3.7,0.6,7.2,0.6c3,0,5.6-0.1,6.8-0.5c0,0,0.3,0,0.3-0.1
						C886.4,149.1,883,148.6,879.1,148.6z"/>
				</g>
				<path class="st30" d="M873.8,153.9c-1.7-1.6-3.9-2.6-6.1-1.8c-1.8,0.7-3,2.5-3.2,4.4c-0.5,4,4.3,7.4,7.5,5.8
					c0.9-0.4,0.3-1.9-0.7-1.5c-2.4,1.2-5.6-1.8-4.8-4.4c0.9-3,3.9-3.1,6.1-1.2C873.4,156.1,874.7,154.7,873.8,153.9z"/>
			</g>
			<g>
				<path class="st32" d="M878.5,136c0.7,0,0.7-1.1,0-1.1c-1.7-0.1-3.3,0.9-3.5,2.7c-0.1,0.9,0.2,1.6,0.7,2.3c0.9,1.3,3.2,2.8,1,4.4
					c-0.6,0.4,0,1.4,0.6,1c1.1-0.7,1.7-1.9,1.4-3.2c-0.1-0.7-0.5-1.1-1-1.6c-0.4-0.5-1.1-0.9-1.3-1.5
					C875.9,137.3,876.8,135.9,878.5,136z"/>
				<path class="st32" d="M883.8,137.1c0.7,0,0.7-1.1,0-1.1c-1.7-0.1-3.3,0.9-3.5,2.7c-0.1,0.9,0.2,1.6,0.7,2.3
					c0.9,1.3,3.2,2.8,1,4.4c-0.6,0.4,0,1.4,0.6,1c1.1-0.7,1.7-1.9,1.4-3.2c-0.1-0.7-0.5-1.1-1-1.6c-0.4-0.5-1.1-0.9-1.3-1.5
					C881.1,138.4,882.1,137,883.8,137.1z"/>
			</g>
		</g>
		<g>
			<path class="st33" d="M870.2,156.7c0-0.1-0.1-0.2-0.1-0.3c-0.4-1-1.5-1-2-1.8c-0.3-0.3-0.2-1.6-0.9-1.4c-0.3,0.1-1.1,0.3-2,0.6
				c-0.7,0-1.5,0-2.2-0.1c-1.8-0.2-5.2-3-6.8-0.8c-0.3,0.4-0.6,0.8-0.8,1.3c-0.1,0.4-0.1,0.8-0.1,1.2c0,0.3-0.1,0.8,0.2,1
				c0.2,0.2,1,0.2,1.4,0.3c0.9,0.2,1.8,0.4,2.7,0.6c0.9,0.2,1.9,0.5,2.2,1.4c0.1,0.2,0.1,0.4,0.2,0.6c0.1,0.2,0.3,0.4,0.4,0.5
				c0.6,0.5,1.3,1,2.1,1.3c1.3,0.6,3.4-0.7,4.6-1.3c0.3-0.2,0.6-0.3,0.8-0.6c0.3-0.4,0.4-1,0.4-1.6
				C870.2,157.3,870.2,157,870.2,156.7z"/>
			<path class="st6" d="M837.7,139.7c-0.6,1.5-0.9,3.1-0.8,4.9c0.1,1.8,1.1,3.5,2.5,4.8c1.3,1.3,3,2.2,4.6,3
				c4.9,2.5,10,4.5,15.2,6.1c0.9-1.8,1.7-3.6,2.6-5.3c0.2-0.4,0.4-0.9,0.3-1.4c-0.1-0.4-0.6-0.7-1-0.9c-1.9-1-3.8-2.1-5.7-3.1
				c-1.8-1-3.7-2.1-4.6-3.9c-1.7-3.5,2.2-5,4.1-7c2.6-2.7,5.4-5.3,7.9-8.1c2.4-2.5,4.9-5.1,6-8.3c2.1-6.4-0.1-10.9-6.1-8.2
				c-3.8,1.7-6.7,4.7-10.7,8.3C846.5,125.6,840.3,132.7,837.7,139.7z"/>
		</g>
	</g>
	<g>
		<g>
			<g>
				<g>
					<g>
						<path class="st10" d="M294.8,194.5c3-8.1,14.8-10.6,17.2-0.9c0.7,2.9,1.1,5.9,0.4,8.8c-0.7,2.9-2.5,5.7-5.2,6.8l0,0
							c0.1,0.8,0.2,1.5,0.2,2.3c0,0.2,0,0.3-0.1,0.5c-0.1,0.2-0.3,0.2-0.5,0.2c-0.9,0.1-1.8,0.2-2.7,0.3c-0.4,0.1-0.9,0.1-1.3-0.1
							c-0.9-0.3-1.3-1.5-1.3-2.5c0-0.2,0-0.5,0-0.7C296.3,207.2,292.8,199.8,294.8,194.5z"/>
					</g>
				</g>
				<g>
					<g>
						<g>
							<path class="st14" d="M311.6,196.1c1.1,2.2,0.8,4.8,0.2,7.1c-0.5,2.3-0.5,4.6-1.2,6.8c0.2,0.4,0.8,0.2,1.2,0
								c2.2-1.4,4.3-2.7,6.4-4.2c0.2-0.1,0.4-0.3,0.6-0.5c0.2-0.3,0.2-0.6,0.2-1c0.1-6.5-1.9-11.4-5.1-16.9c-1.5-2.6-6-5.8-8.9-3.1
								c-0.7,0.6-1,1.5-1.2,2.4c-0.1,0.5-0.3,1.1-0.2,1.6c0.3,2.2,2.3,2.2,3.8,3C309.1,192.6,310.7,194.3,311.6,196.1z"/>
						</g>
					</g>
					<g>
						<g>
							<path class="st14" d="M296.5,199c-0.2,1.9,0.1,4,0.5,5.8c0.1,0.6,1.2,2.2,1.2,2.6c0,1.2-2.7,3.8-3.5,4.8
								c-3.6-2.5-7.3-5-10.9-7.5c-0.3-0.2-0.6-0.4-0.7-0.7c-0.1-0.3-0.1-0.6-0.1-0.9c0.4-6.1,2.4-11.4,5.3-16.7
								c2.8-5.3,8.4-9.3,14.5-8.3c4.9,0.8,8,4.7,5.7,9.7c-1.7,3.7-6.6,4.1-9.4,6.5C297.2,195.7,296.6,197.3,296.5,199z"/>
						</g>
					</g>
				</g>
			</g>
		</g>
		<g>
			<g>
				<path class="st11" d="M279.4,264.1c4.4-2.4,8.6,0.6,11.7,3.3c6.2,5.5,12.8,10.5,19.4,15.5c2.2-1.2,4.5-2.6,5.6-3.1
					c6.6-3.5,13.4-6.8,19.7-10.8c3.1-2,7.2-3.9,11.3-0.3c3.4,2.9,4.6,8.1,3.5,11.3c-1.1,3.2-3.8,4.8-6.5,6.1
					c-6.8,3.3-14.8,7.5-22.5,8.4c-3.3,0.4-7.1,0.1-10.5,0.1c-5.8-0.1-11.6-1.1-17.3-2.1c-1.9-0.3-3.8-0.7-5.4-1.6
					c-5.9-3.2-12-4.4-13.8-11.8C273.6,274,274.5,266.8,279.4,264.1z"/>
				<path class="st11" d="M284.8,278.1c0.5-4.4,2.7-7.9,6.8-9.8c3.3-1.5,7-1.9,10.6-2.4c8-1,15.7-2.1,23.8-1.7
					c6.5,0.3,10.5,5.8,13.5,11.3c1.9,3.4,1.4,5.1-1,7.9c-2.2,2.7-4.9,4.9-7.9,6.6c-6,3.4-15.1,2.6-21.7,1.8
					c-6.2-0.7-12.3-2.5-17.8-5.4C287.5,284.6,284.3,282.4,284.8,278.1z"/>
			</g>
			<path class="st23" d="M306,211.6c-3.1-0.4-6.2-1-8.7,0.2c-2.2,0.9-2.1,3.7-2.6,5.8c-1.6,6.9-2.8,13.8-3.8,20.8
				c-0.5,3.3-1.2,6.9-1.2,10.3c0,2.7,0.7,5.3,0.5,8.1c-0.2,2.1-1.1,4.4-3,5.3c-1,0.4-2.1,0.5-3.1,0.9s-1.8,1.6-1.3,2.5
				c0.2,0.5,0.7,0.7,1.1,1c2.4,1.3,4.8,2.7,7.2,4c1.8,1,3.7,2.1,5.7,2.8c2.8,1,5.8,1.4,8.8,1.5c7.7,0.4,15.5-0.5,23-2.5
				c4-1.1,7.9-3.1,6.9-7.6c-1-4.7-2.9-9.3-5-13.6c-2.5-5.2-3.3-11.4-5.1-16.9c-1.8-5.5-3.7-11-5.7-16.5c0,0,0,0,0-0.1
				c-0.7-2-1-4-2.6-5.6c-2.1-2.2-3.2-0.5-5.6,0C309.8,212.1,307.9,211.9,306,211.6z"/>
		</g>
	</g>
	<g id="XMLID_13_">
		<g id="XMLID_15_">
			<polygon class="st10" points="390.7,134.9 394.2,135.9 396.9,134.3 397.6,134.7 397.1,135.5 399.7,134.8 401.8,135.8 
				402.3,138.8 400.9,141.5 398,141.7 394.8,140.1 390,139 			"/>
		</g>
		<g id="XMLID_14_">
			<path class="st11" d="M393.3,133.5c-5.3-3.3-14.5-5.8-12.5-13.1c1.9-6.8,4.1-14.2,1.5-20.8c-0.3-0.7-0.6-1.3-1.1-1.8
				c-1.1-0.8-2.7-0.5-3.7,0.4s-1.6,2.1-2.1,3.4c-1.8,4.2-7,17.8-7.7,20.4c-0.6,2.4-2.1,5-0.9,7.5c0.5,1.2,1.9,2,2.9,2.7
				c3.2,2.1,6.8,3.6,10.3,5.1c0.7,0.3,10.7,4.1,10.9,3.4L393.3,133.5z"/>
		</g>
	</g>
	<g>
		<g>
			<g>
				<path class="st14" d="M675.4,288.8h-64.8c-1.3,0-2.3-1-2.3-2.3V170.7c0-1.3,1-2.3,2.3-2.3h64.8c1.3,0,2.3,1,2.3,2.3v115.8
					C677.7,287.8,676.7,288.8,675.4,288.8z"/>
			</g>
			<rect x="613.4" y="174.6" class="st18" width="59.2" height="97.6"/>
			<path class="st3" d="M649.3,284h-12.6c-0.8,0-1.5-0.7-1.5-1.5v-2.2c0-0.8,0.7-1.5,1.5-1.5h12.6c0.8,0,1.5,0.7,1.5,1.5v2.2
				C650.8,283.3,650.1,284,649.3,284z"/>
		</g>
		<g>
			<g>
				<circle class="st34" cx="617.8" cy="179.6" r="2.1"/>
				<line class="st34" x1="619.8" y1="182" x2="619.1" y2="181.2"/>
			</g>
		</g>
		<path class="st3" d="M663.8,182.1h-41.2c-0.3,0-0.5-0.3-0.5-0.5v-3.7c0-0.3,0.3-0.5,0.5-0.5h41.2c0.3,0,0.5,0.3,0.5,0.5v3.7
			C664.3,182,664,182.1,663.8,182.1z"/>
		<g>
			<path class="st22" d="M627,177.8h0.4v1.3l0,0c0.1-0.1,0.2-0.2,0.3-0.3s0.2-0.1,0.4-0.1c0.3,0,0.7,0.2,0.7,0.9v1.2h-0.4v-1.2
				c0-0.3-0.1-0.6-0.5-0.6c-0.2,0-0.4,0.2-0.5,0.4c0,0.1,0,0.1,0,0.2v1.2H627V177.8z"/>
			<path class="st22" d="M629.8,178.2v0.6h0.5v0.3h-0.5v1.1c0,0.3,0.1,0.4,0.3,0.4c0.1,0,0.2,0,0.2,0v0.3c-0.1,0-0.2,0.1-0.3,0.1
				c-0.2,0-0.3-0.1-0.4-0.2c-0.1-0.1-0.1-0.3-0.1-0.5v-1.1h-0.3v-0.3h0.3v-0.5L629.8,178.2z"/>
			<path class="st22" d="M631.2,178.2v0.6h0.5v0.3h-0.5v1.1c0,0.3,0.1,0.4,0.3,0.4c0.1,0,0.2,0,0.2,0v0.3c-0.1,0-0.2,0.1-0.3,0.1
				c-0.2,0-0.3-0.1-0.4-0.2c-0.1-0.1-0.1-0.3-0.1-0.5v-1.1h-0.3v-0.3h0.3v-0.5L631.2,178.2z"/>
			<path class="st22" d="M632.2,179.4c0-0.3,0-0.5,0-0.7h0.3v0.4l0,0c0.2-0.3,0.4-0.4,0.7-0.4c0.5,0,0.9,0.4,0.9,1
				c0,0.7-0.5,1.1-0.9,1.1c-0.3,0-0.5-0.1-0.6-0.3l0,0v1.1h-0.4V179.4z M632.5,180c0,0.1,0,0.1,0,0.2c0.1,0.3,0.3,0.4,0.6,0.4
				c0.4,0,0.6-0.3,0.6-0.8c0-0.4-0.2-0.8-0.6-0.8c-0.3,0-0.5,0.2-0.6,0.5c0,0,0,0.1,0,0.2V180z"/>
			<path class="st22" d="M634.5,180.4c0.1,0.1,0.3,0.1,0.5,0.1c0.3,0,0.4-0.1,0.4-0.3s-0.1-0.3-0.4-0.4c-0.4-0.1-0.5-0.3-0.5-0.6
				s0.3-0.6,0.7-0.6c0.2,0,0.4,0.1,0.5,0.1l-0.1,0.3c-0.1-0.1-0.2-0.1-0.4-0.1s-0.3,0.1-0.3,0.3s0.1,0.2,0.4,0.3
				c0.4,0.1,0.5,0.3,0.5,0.6c0,0.4-0.3,0.6-0.8,0.6c-0.2,0-0.4-0.1-0.6-0.1L634.5,180.4z"/>
			<path class="st22" d="M636.2,179.1c0-0.2,0.1-0.3,0.3-0.3c0.1,0,0.2,0.1,0.3,0.3c0,0.1-0.1,0.3-0.3,0.3S636.2,179.3,636.2,179.1z
				 M636.2,180.6c0-0.2,0.1-0.3,0.3-0.3c0.1,0,0.2,0.1,0.3,0.3c0,0.1-0.1,0.3-0.3,0.3S636.2,180.8,636.2,180.6z"/>
			<path class="st22" d="M636.8,181l1.2-3.1h0.3l-1.2,3.1H636.8z"/>
			<path class="st22" d="M638.3,181l1.2-3.1h0.3l-1.2,3.1H638.3z"/>
			<path class="st22" d="M640.2,178.8l0.3,1c0.1,0.2,0.1,0.4,0.2,0.7l0,0c0-0.2,0.1-0.4,0.2-0.7l0.3-1.1h0.3l0.3,1
				c0.1,0.2,0.1,0.5,0.2,0.7l0,0c0-0.2,0.1-0.4,0.2-0.7l0.3-1h0.4l-0.7,2.1h-0.4l-0.3-1c-0.1-0.2-0.1-0.4-0.2-0.7l0,0
				c-0.1,0.2-0.1,0.5-0.2,0.7l-0.3,1h-0.3l-0.6-2.1h0.3V178.8z"/>
			<path class="st22" d="M643.4,178.8l0.3,1c0.1,0.2,0.1,0.4,0.2,0.7l0,0c0-0.2,0.1-0.4,0.2-0.7l0.3-1.1h0.3l0.3,1
				c0.1,0.2,0.1,0.5,0.2,0.7l0,0c0-0.2,0.1-0.4,0.2-0.7l0.3-1h0.4l-0.7,2.1h-0.3l-0.3-1c-0.1-0.2-0.1-0.4-0.2-0.7l0,0
				c-0.1,0.2-0.1,0.5-0.2,0.7l-0.3,1h-0.3l-0.6-2.1h0.2V178.8z"/>
			<path class="st22" d="M646.6,178.8l0.3,1c0.1,0.2,0.1,0.4,0.2,0.7l0,0c0-0.2,0.1-0.4,0.2-0.7l0.3-1.1h0.3l0.3,1
				c0.1,0.2,0.1,0.5,0.2,0.7l0,0c0-0.2,0.1-0.4,0.2-0.7l0.3-1h0.4l-0.7,2.1h-0.3l-0.3-1c-0.1-0.2-0.1-0.4-0.2-0.7l0,0
				c-0.1,0.2-0.1,0.5-0.2,0.7l-0.3,1H647l-0.6-2.1h0.2V178.8z"/>
		</g>
		<path class="st2" d="M668.7,177.3l0.4,0.9c0.1,0.2,0.3,0.3,0.5,0.4l1,0.1c0.2,0,0.2,0.2,0.1,0.4l-0.7,0.7
			c-0.1,0.1-0.2,0.4-0.2,0.6l0.2,1c0,0.2-0.1,0.3-0.3,0.2l-0.8-0.5c-0.2-0.1-0.4-0.1-0.7,0l-0.8,0.5c-0.1,0.1-0.3,0-0.3-0.2l0.2-1
			c0-0.2,0-0.5-0.2-0.6l-0.7-0.7c-0.1-0.1,0-0.3,0.1-0.4l1-0.1c0.2,0,0.4-0.2,0.5-0.4l0.4-0.9C668.4,177.1,668.7,177.1,668.7,177.3z
			"/>
		<rect x="613.5" y="184.6" class="st2" width="59" height="30.6"/>
		<rect x="626.2" y="220.5" class="st7" width="33.8" height="33.8"/>
		<rect x="626.2" y="263.2" class="st24" width="33.9" height="4.4"/>
	</g>
	<g>
		<path class="st10" d="M336.7,258.8c-0.4-1.1-0.8-2.2-1.2-3.3c-0.1-0.3-0.3-1.4-0.8-1.2c-0.3,0.1-1.1,0.3-2,0.5
			c-0.7-0.1-1.5-0.1-2.2-0.3c-1.9-0.4-5.4-3.3-7-1.3c-0.3,0.4-0.6,0.8-0.8,1.3c-0.1,0.4-0.1,0.8-0.1,1.2c0,0.3-0.1,0.8,0.2,1
			c0.2,0.2,1.1,0.3,1.4,0.4c0.9,0.3,1.9,0.5,2.8,0.8c0.9,0.3,2,0.6,2.2,1.5c0.1,0.2,0.1,0.4,0.2,0.6c0.1,0.2,0.3,0.4,0.4,0.5
			c0.6,0.6,1.4,1.1,2.1,1.5s1.2,0,1.9-0.2c0.8-0.3,1.6,0,2.4-0.2c0.5-0.1,0.9-0.5,1-0.9c0.1-0.4-0.1-0.8-0.2-1.1
			C336.9,259.3,336.8,259,336.7,258.8z"/>
		<path class="st23" d="M303.4,248.8c1.2,1.7,2.8,3.1,4.9,4.3c5.2,3,10.8,5.2,16.7,6.4c1.4-2.4,2.3-5.2,2.7-7.9
			c-4.4-2.1-8.7-4.6-12.8-7.4c-2-1.4-3.5-2.9-3.7-5.4c-0.3-5.6-0.1-11.3,0.4-16.9c0.1-1.2,0.3-2.5,0-3.7c-0.5-2.2-2.5-4-4.7-4.5
			c-2.2-0.6-4.6-0.1-6.7,1c-1.5,0.8-2.8,1.9-3.5,3.4s-0.6,3.3-0.5,5c0.6,7.5,2.4,15,5.1,22.1C302,246.5,302.6,247.7,303.4,248.8z"/>
	</g>
	<polygon class="st33" points="879.7,159.4 881.6,154.8 887.4,154.8 892.3,159.4 886,162.2 	"/>
</g>
<g>
	<path class="st7" d="M539.9,316.6H451c-6.2,0-11.3-5.1-11.3-11.3v-56.6c0-6.2,5.1-11.3,11.3-11.3h88.9c6.2,0,11.3,5.1,11.3,11.3
		v56.6C551.2,311.5,546.1,316.6,539.9,316.6z"/>
	<g>
		<path class="st35" d="M465.4,277l19.1-9.8v2.8l-16.1,8.1v0.1l16.1,8.1v2.8l-19.1-9.8V277z"/>
		<path class="st35" d="M487.2,290.7l11.5-29.9h2.8L490,290.7H487.2z"/>
		<path class="st35" d="M523.2,279.2l-19.1,9.8v-2.8l16.2-8.1V278l-16.2-8.1v-2.8l19.1,9.8V279.2z"/>
	</g>
</g>
<g>
	<g>
		<ellipse class="st36" cx="730.3" cy="99.6" rx="74.3" ry="51.7"/>
		<polygon class="st36" points="710.9,127.1 686.6,185.2 685,107.7 		"/>
	</g>
	<g>
		<path class="st7" d="M695,89v9.2h10.6V89h2.9v22h-2.9v-10.4H695v10.3h-2.8v-22L695,89L695,89z"/>
		<path class="st7" d="M717.6,91.4h-6.7V89h16.3v2.4h-6.7v19.5h-2.9L717.6,91.4L717.6,91.4z"/>
		<path class="st7" d="M748.1,101.3c-0.2-3.1-0.4-6.7-0.3-9.5h-0.1c-0.7,2.6-1.7,5.3-2.8,8.3l-3.9,10.7h-2.1l-3.6-10.5
			c-1-3.1-1.9-5.9-2.5-8.5h0c-0.1,2.7-0.2,6.4-0.4,9.7l-0.6,9.4h-2.7l1.5-22h3.6l3.7,10.6c0.9,2.7,1.7,5.1,2.2,7.4h0.1
			c0.6-2.2,1.3-4.6,2.3-7.4l3.9-10.6h3.6l1.4,22h-2.8L748.1,101.3z"/>
		<path class="st7" d="M755.8,89h2.8v19.6h9.4v2.4h-12.2V89z"/>
	</g>
</g>
<g>
	<g>
		<ellipse class="st36" cx="652.1" cy="281.4" rx="51.7" ry="36"/>
		<polygon class="st36" points="638.7,300.5 621.8,341 620.7,287 		"/>
	</g>
	<g>
		<path class="st7" d="M642.6,290.8c-0.7,0.4-2.4,0.9-4.5,0.9c-4.8,0-7.8-3.2-7.8-8c0-4.9,3.3-8.4,8.5-8.4c1.7,0,3.2,0.4,4,0.8
			l-0.7,2.2c-0.7-0.4-1.8-0.7-3.3-0.7c-3.6,0-5.6,2.7-5.6,6c0,3.6,2.3,5.9,5.5,5.9c1.6,0,2.7-0.4,3.5-0.8L642.6,290.8z"/>
		<path class="st7" d="M645.6,288.5c0.8,0.6,2.3,1.1,3.8,1.1c2.1,0,3.1-1,3.1-2.3c0-1.4-0.8-2.1-2.9-2.9c-2.8-1-4.2-2.6-4.2-4.5
			c0-2.5,2.1-4.6,5.4-4.6c1.6,0,3,0.5,3.9,1l-0.7,2.1c-0.6-0.4-1.8-0.9-3.2-0.9c-1.7,0-2.6,1-2.6,2.1c0,1.3,0.9,1.9,3,2.7
			c2.7,1,4.1,2.4,4.1,4.8c0,2.8-2.1,4.7-5.9,4.7c-1.7,0-3.3-0.4-4.4-1.1L645.6,288.5z"/>
		<path class="st7" d="M658.5,288.5c0.8,0.6,2.3,1.1,3.8,1.1c2.1,0,3.1-1,3.1-2.3c0-1.4-0.8-2.1-2.9-2.9c-2.8-1-4.2-2.6-4.2-4.5
			c0-2.5,2.1-4.6,5.4-4.6c1.6,0,3,0.5,3.9,1l-0.7,2.1c-0.6-0.4-1.8-0.9-3.2-0.9c-1.7,0-2.6,1-2.6,2.1c0,1.3,0.9,1.9,3,2.7
			c2.7,1,4.1,2.4,4.1,4.8c0,2.8-2.1,4.7-5.9,4.7c-1.7,0-3.3-0.4-4.4-1.1L658.5,288.5z"/>
	</g>
</g>
<g>
	<g>
		<path class="st36" d="M320.6,302c4,0,4.6-2.2,4.6-4.2c0-1.6-0.2-3.2-0.5-4.8c-0.2-1.6-0.5-3.2-0.5-4.7c0-5.2,3.4-7.4,8.2-7.4h1.2
			v3.2h-1.1c-3.3,0-4.5,1.8-4.5,4.8c0,1.3,0.1,2.7,0.4,4c0.2,1.4,0.4,2.8,0.4,4.3c0,3.6-1.5,5.4-4.1,6.1v0.1
			c2.6,0.6,4.1,2.6,4.1,6.2c0,1.5-0.1,2.9-0.4,4.3c-0.2,1.4-0.4,2.7-0.4,4.1c0,3.2,1.3,4.9,4.5,4.9h1.1v3.2h-1.2
			c-4.7,0-8.2-2-8.2-7.7c0-1.5,0.2-3.2,0.5-4.7c0.2-1.5,0.5-3,0.5-4.6c0-1.8-0.6-4.2-4.6-4.2V302z"/>
		<path class="st36" d="M389,304.9c-4,0-4.6,2.5-4.6,4.2c0,1.5,0.2,3,0.5,4.6c0.2,1.5,0.5,3.2,0.5,4.7c0,5.7-3.5,7.7-8.2,7.7H376
			V323h0.9c3.2,0,4.6-1.8,4.6-4.9c0-1.4-0.2-2.7-0.4-4.1c-0.2-1.4-0.5-2.8-0.5-4.3c0-3.6,1.6-5.5,4.1-6.2v-0.1
			c-2.5-0.7-4.1-2.5-4.1-6.1c0-1.5,0.2-2.9,0.5-4.3c0.1-1.4,0.4-2.7,0.4-4c0-3-1.2-4.8-4.5-4.8h-1.2v-3.2h1.2c4.8,0,8.2,2.2,8.2,7.4
			c0,1.6-0.2,3.2-0.5,4.7c-0.2,1.6-0.5,3.2-0.5,4.8c0,2,0.6,4.2,4.6,4.2v2.9H389z"/>
	</g>
</g>
<g>
	<path class="st36" d="M453.3,25.5l2.1,8.2c0.5,1.8,0.9,3.5,1.2,5.1h0.1c0.4-1.6,0.9-3.4,1.4-5.1l2.6-8.2h2.5l2.5,8
		c0.6,1.9,1.1,3.6,1.4,5.2h0.1c0.3-1.6,0.7-3.3,1.2-5.2l2.3-8.1h2.9l-5.1,16.2h-2.7l-2.5-7.7c-0.6-1.8-1-3.4-1.4-5.3h-0.1
		c-0.4,1.9-0.9,3.6-1.5,5.3l-2.6,7.6H455l-4.8-16.1h3.1V25.5z"/>
	<path class="st36" d="M478.2,25.5l2.1,8.2c0.5,1.8,0.9,3.5,1.2,5.1h0.1c0.4-1.6,0.9-3.4,1.4-5.1l2.6-8.2h2.5l2.5,8
		c0.6,1.9,1.1,3.6,1.4,5.2h0.1c0.3-1.6,0.7-3.3,1.2-5.2l2.3-8.1h2.9l-5.1,16.2h-2.7l-2.5-7.7c-0.6-1.8-1-3.4-1.4-5.3l0,0
		c-0.4,1.9-0.9,3.6-1.5,5.3l-2.6,7.6H480l-4.8-16.1h3V25.5z"/>
	<path class="st36" d="M503,25.5l2.1,8.2c0.5,1.8,0.9,3.5,1.2,5.1h0.1c0.4-1.6,0.9-3.4,1.4-5.1l2.6-8.2h2.5l2.5,8
		c0.6,1.9,1.1,3.6,1.4,5.2h0.1c0.3-1.6,0.7-3.3,1.2-5.2l2.3-8.1h2.9l-5.1,16.2h-2.7l-2.5-7.7c-0.6-1.8-1-3.4-1.4-5.3h-0.1
		c-0.4,1.9-0.9,3.6-1.5,5.3l-2.6,7.6h-2.7l-4.8-16.1h3.1V25.5z"/>
</g>
<path class="st36" d="M908.1,304c0,0.3,0,0.6,0,0.9c-0.6,6.7-6.1,11.9-12.8,11.9c-80,0-80,0-80,0c-6.7,0-12.5-5.2-12.8-11.9
	c0-0.3,0-0.6,0-0.9c0-7.2,5.8-12.8,12.8-12.8c1.7,0,3.5,0.3,4.9,0.9c1.2-10.7,10.4-19.1,21.7-19.1c0.9,0,2,0,2.9,0
	c4.9-7.2,13.3-12.2,22.9-12.2c15.7,0,28.1,12.5,28.1,28.1c0,0.6,0,1.4,0,2.3C902.6,291.5,908.1,297,908.1,304L908.1,304z"/>
<g>
	<g>
		<circle class="st34" cx="344.7" cy="149.3" r="2.8"/>
		<line class="st34" x1="347.4" y1="152.5" x2="346.5" y2="151.5"/>
	</g>
</g>
<path class="st3" d="M405.6,152.7h-54.7c-0.4,0-0.7-0.4-0.7-0.7v-4.8c0-0.4,0.4-0.7,0.7-0.7h54.7c0.4,0,0.7,0.4,0.7,0.7v4.8
	C406.4,152.5,406,152.7,405.6,152.7z"/>
<g>
	<path class="st22" d="M356.9,146.9h0.5v1.7l0,0c0.1-0.1,0.2-0.3,0.4-0.4c0.1-0.1,0.3-0.1,0.5-0.1c0.4,0,1,0.2,1,1.2v1.6h-0.5v-1.6
		c0-0.4-0.2-0.8-0.6-0.8c-0.3,0-0.6,0.2-0.7,0.5c0,0.1,0,0.1,0,0.2v1.7H357L356.9,146.9L356.9,146.9z"/>
	<path class="st22" d="M360.6,147.4v0.8h0.7v0.4h-0.7v1.5c0,0.3,0.1,0.5,0.4,0.5c0.1,0,0.2,0,0.3,0v0.4c-0.1,0-0.2,0.1-0.4,0.1
		c-0.2,0-0.4-0.1-0.5-0.2c-0.1-0.1-0.2-0.4-0.2-0.7v-1.6h-0.4v-0.4h0.4v-0.6L360.6,147.4z"/>
	<path class="st22" d="M362.5,147.4v0.8h0.7v0.4h-0.7v1.5c0,0.3,0.1,0.5,0.4,0.5c0.1,0,0.2,0,0.3,0v0.4c-0.1,0-0.2,0.1-0.4,0.1
		c-0.2,0-0.4-0.1-0.5-0.2c-0.1-0.1-0.2-0.4-0.2-0.7v-1.6h-0.4v-0.4h0.4v-0.6L362.5,147.4z"/>
	<path class="st22" d="M363.7,149.1c0-0.4,0-0.6,0-0.9h0.4v0.5l0,0c0.2-0.3,0.5-0.5,1-0.5c0.7,0,1.2,0.6,1.2,1.4
		c0,1-0.6,1.5-1.2,1.5c-0.4,0-0.7-0.2-0.8-0.4l0,0v1.5h-0.5v-3.1H363.7z M364.2,149.8c0,0.1,0,0.1,0,0.2c0.1,0.3,0.4,0.6,0.7,0.6
		c0.5,0,0.8-0.4,0.8-1.1c0-0.5-0.3-1-0.8-1c-0.3,0-0.7,0.2-0.8,0.6c0,0.1,0,0.1,0,0.2L364.2,149.8L364.2,149.8z"/>
	<path class="st22" d="M366.9,150.4c0.1,0.1,0.4,0.2,0.7,0.2c0.4,0,0.5-0.2,0.5-0.4s-0.1-0.4-0.5-0.5c-0.5-0.2-0.7-0.4-0.7-0.8
		c0-0.4,0.4-0.8,0.9-0.8c0.3,0,0.5,0.1,0.7,0.2l-0.1,0.4c-0.1-0.1-0.3-0.2-0.6-0.2s-0.5,0.2-0.5,0.4s0.2,0.3,0.5,0.5
		c0.5,0.2,0.7,0.4,0.7,0.8c0,0.5-0.4,0.8-1,0.8c-0.3,0-0.6-0.1-0.8-0.2L366.9,150.4z"/>
	<path class="st22" d="M369.1,148.7c0-0.2,0.1-0.4,0.3-0.4s0.3,0.1,0.3,0.4c0,0.2-0.1,0.4-0.3,0.4
		C369.2,149,369.1,148.9,369.1,148.7z M369.1,150.7c0-0.2,0.1-0.4,0.3-0.4s0.3,0.1,0.3,0.4c0,0.2-0.1,0.4-0.3,0.4
		C369.2,151,369.1,150.9,369.1,150.7z"/>
	<path class="st22" d="M369.9,151.2l1.6-4.1h0.4l-1.6,4.1H369.9z"/>
	<path class="st22" d="M371.9,151.2l1.6-4.1h0.4l-1.6,4.1H371.9z"/>
	<path class="st22" d="M374.4,148.2l0.4,1.4c0.1,0.3,0.2,0.6,0.2,0.9l0,0c0.1-0.3,0.2-0.6,0.2-0.9l0.4-1.4h0.4l0.4,1.4
		c0.1,0.3,0.2,0.6,0.2,0.9l0,0c0-0.3,0.1-0.6,0.2-0.9l0.4-1.4h0.5l-0.9,2.7h-0.5l-0.4-1.3c-0.1-0.3-0.2-0.6-0.2-0.9l0,0
		c-0.1,0.3-0.2,0.6-0.2,0.9l-0.4,1.3h-0.3l-0.8-2.7H374.4z"/>
	<path class="st22" d="M378.7,148.2l0.4,1.4c0.1,0.3,0.2,0.6,0.2,0.9l0,0c0.1-0.3,0.2-0.6,0.2-0.9l0.4-1.4h0.4l0.4,1.4
		c0.1,0.3,0.2,0.6,0.2,0.9l0,0c0-0.3,0.1-0.6,0.2-0.9l0.4-1.4h0.5l-0.9,2.7h-0.3l-0.4-1.3c-0.1-0.3-0.2-0.6-0.2-0.9l0,0
		c-0.1,0.3-0.2,0.6-0.2,0.9l-0.4,1.3h-0.5l-0.8-2.7H378.7z"/>
	<path class="st22" d="M382.9,148.2l0.4,1.4c0.1,0.3,0.2,0.6,0.2,0.9l0,0c0.1-0.3,0.2-0.6,0.2-0.9l0.4-1.4h0.4l0.4,1.4
		c0.1,0.3,0.2,0.6,0.2,0.9l0,0c0-0.3,0.1-0.6,0.2-0.9l0.4-1.4h0.5l-0.9,2.7h-0.5l-0.4-1.3c-0.1-0.3-0.2-0.6-0.2-0.9l0,0
		c-0.1,0.3-0.2,0.6-0.2,0.9l-0.4,1.3h-0.5l-0.8-2.7H382.9z"/>
</g>
<path class="st2" d="M439.5,146.2l0.6,1.2c0.1,0.2,0.4,0.4,0.7,0.5l1.3,0.2c0.2,0.1,0.3,0.3,0.1,0.5l-0.9,0.9
	c-0.2,0.2-0.3,0.5-0.2,0.8l0.2,1.3c0.1,0.2-0.2,0.4-0.4,0.3l-1.1-0.6c-0.2-0.1-0.6-0.1-0.9,0l-1.1,0.6c-0.2,0.1-0.4-0.1-0.4-0.3
	l0.2-1.3c0.1-0.3-0.1-0.6-0.2-0.8l-0.9-0.9c-0.2-0.2-0.1-0.4,0.1-0.5l1.3-0.2c0.3-0.1,0.6-0.2,0.7-0.5l0.6-1.2
	C439.2,146,439.5,146,439.5,146.2z"/>
<g>
	<path class="st26" d="M280.7,98.1c-2.3-1.4-4.6-2.7-7-4.1c-1.4-0.8-2.8-1.7-4.2-2.4c-0.6-0.3-0.9-0.8-0.9-1.5c0-4.1,0-8.3,0-12.4
		c0-0.7,0.3-1.2,0.9-1.6c3.6-2,7.2-4.1,10.7-6.2c0.6-0.4,1.2-0.4,1.8,0c0.7,0.4,1.4,0.8,2.1,1.2c0.9,0.5,1.1,0.4,1.1-0.6
		c0-2.8,0-5.6,0-8.4c0-2.6,0-5.2,0-7.8c0-0.4,0.1-0.8,0.4-1.1c0.2,0,0.4,0,0.7,0c2,1.1,4,2.3,6.1,3.4c1,0.5,1.3,1.2,1.3,2.3
		c0,10.3,0,20.6,0,30.9c0,1-0.3,1.6-1.2,2c-3.6,2-7.2,4.1-10.7,6.2c-0.1,0-0.1,0.1-0.2,0.2C281.3,98.1,281,98.1,280.7,98.1z
		 M285.3,84.2c0-1,0-1.6,0-2.3c0-0.3-0.1-0.6-0.4-0.7c-1.1-0.6-2.2-1.3-3.3-1.9c-0.3-0.2-0.6-0.2-0.9,0c-1.1,0.6-2.2,1.3-3.3,1.9
		c-0.4,0.2-0.5,0.5-0.5,0.9c0,0.6,0,1.2,0,1.8c0,0.8-0.3,1.7,0.1,2.3c0.4,0.6,1.3,0.8,1.9,1.2c0.7,0.4,1.4,1,2.1,1.1
		c0.8,0.1,1.4-0.8,2.2-1.1C284.9,86.7,285.9,85.7,285.3,84.2z"/>
	<path class="st26" d="M201.5,76.6c0.2-0.4,0.6-0.7,1-1c3.5-2,7-4,10.5-6.1c0.7-0.4,1.3-0.4,2.1,0c3.5,2,7,4.1,10.5,6.1
		c0.7,0.4,1,1,1,1.8c0,5.5,0,10.9,0,16.4c0,1.2-0.4,1.4-1.5,0.8c-2-1.1-3.9-2.3-5.9-3.4c-0.7-0.4-1-0.9-1-1.7c0-2.5,0-4.9,0-7.4
		c0-0.8-0.3-1.3-0.9-1.6c-0.8-0.4-1.6-0.9-2.4-1.4c-0.6-0.3-1.1-0.3-1.7,0c-0.8,0.5-1.6,0.9-2.4,1.4c-0.7,0.4-1,0.9-1,1.7
		c0,2.5,0,4.9,0,7.4c0,0.8-0.3,1.3-1,1.7c-2,1.2-4.1,2.3-6.1,3.5c-0.4,0.2-0.9,0.5-1.2-0.2c0-2.1,0-4.1,0-6.2c0-1.2,0-2.5,0-3.7
		c0-0.2,0.1-0.4-0.1-0.6C201.5,81.6,201.5,79.1,201.5,76.6z"/>
	<path class="st37" d="M201.6,88.4c0,2.1,0,4.1,0,6.2l-0.1,0l0,0c0-2,0-4.1,0-6.1C201.5,88.4,201.6,88.4,201.6,88.4z"/>
	<path class="st38" d="M201.6,88.4c0,0-0.1,0-0.1,0c0-1.4,0-2.9,0-4.3c0.2,0.2,0.1,0.4,0.1,0.6C201.6,85.9,201.6,87.2,201.6,88.4z"
		/>
	<path class="st26" d="M302.1,83.6c0-2,0-4,0-6c0-0.8,0.3-1.3,1-1.7c3.5-2,7.1-4,10.6-6.1c0.7-0.4,1.3-0.4,2,0
		c3.5,2.1,7,4.1,10.6,6.1c0.7,0.4,1,0.9,0.9,1.6c0,0.8,0,1.7,0,2.5c0,0.7-0.2,1.2-0.8,1.5c-2.1,1.2-4.2,2.5-6.3,3.7
		c-0.8,0.5-1.2,0.2-1.2-0.7c0-0.9,0-1.7,0-2.6c0-0.5-0.2-0.8-0.6-1c-1-0.6-2-1.1-3-1.7c-0.4-0.3-0.8-0.3-1.2,0
		c-1,0.6-1.9,1.2-2.9,1.7c-0.5,0.3-0.7,0.6-0.7,1.2c0,1.1,0,2.2,0,3.3c0,0.6,0.2,0.9,0.7,1.2c3.5,2,6.9,3.9,10.4,5.9
		c0.2,0.1,0.3,0.2,0.5,0.3c0.5,0.4,0.6,0.9,0,1.2c-2.3,1.3-4.5,2.5-6.8,3.8c-0.4,0.2-0.9,0.1-1.3-0.1c-3.6-2.1-7.3-4.2-10.9-6.2
		c-0.6-0.3-0.8-0.9-0.8-1.5C302.1,87.7,302.1,85.7,302.1,83.6z"/>
	<path class="st6" d="M344.8,84.9c0,1.9,0.1,3.8,0,5.7c-0.1,2.5-1.9,3.8-4.4,3c-1.5-0.5-2.9-1.4-4.2-2.3c-0.6-0.4-0.8-1.1-0.8-1.8
		c0-4,0-8,0-12c0-0.9,0.4-1.6,1.2-2c3.5-2,6.9-4,10.4-6c0.8-0.4,1.6-0.5,2.4,0c3.5,2,7,4,10.5,6c0.8,0.5,1.1,1.2,1.1,2.1
		c0,4,0,8,0,12c0,0.9-0.4,1.6-1.2,2.1c-3.4,2-6.9,3.9-10.3,5.9c-0.9,0.5-1.7,0.5-2.6,0c-1.1-0.6-2.1-1.3-3.2-1.9
		c-0.1-0.1-0.4-0.1-0.4-0.3c0-0.2,0.2-0.2,0.4-0.3c0.1-0.1,0.3-0.1,0.4-0.2c0.8-0.7,1.6-0.4,2.3,0.2c1.2,1,2.2,0.9,3.5,0.1
		c2.8-1.8,5.7-3.3,8.5-4.9c0.4-0.2,0.6-0.5,0.6-1c0-3.8,0-7.5,0-11.3c0-0.5-0.1-0.7-0.5-0.9c-3.2-1.8-6.5-3.7-9.7-5.6
		c-0.5-0.3-0.8-0.3-1.3,0c-3.2,1.9-6.4,3.7-9.6,5.5c-0.5,0.3-0.6,0.5-0.6,1.1c0,3.7,0,7.5,0,11.2c0,0.5,0.1,0.8,0.6,1
		c0.8,0.4,1.5,0.9,2.3,1.3c0.3,0.2,0.6,0.3,0.9,0.4c1.1,0.2,1.8-0.3,1.9-1.4c0-1.4,0-2.8,0-4.2c0-2.4,0-4.8,0-7.2
		c0-0.6,0.2-0.9,0.8-0.8c0.2,0,0.3,0,0.5,0c0.6-0.1,0.8,0.2,0.8,0.7C344.9,80.8,344.9,82.8,344.8,84.9
		C344.9,84.9,344.9,84.9,344.8,84.9z"/>
	<path class="st6" d="M351.3,77.8c1,0,2,0.1,3,0.5c1.2,0.6,1.9,1.6,2,2.9c0,0.1,0,0.3-0.1,0.4c-0.4,0.4-0.9,0.2-1.4,0.2
		c-0.3,0-0.5-0.1-0.6-0.4c-0.3-1.2-1.1-1.6-2.2-1.7c-0.8-0.1-1.7-0.1-2.5,0.1c-0.3,0.1-0.6,0.2-0.9,0.4c-0.6,0.6-0.5,1.5,0.4,1.8
		c1.2,0.4,2.4,0.4,3.7,0.7c0.7,0.1,1.3,0.2,2,0.5c1,0.3,1.8,0.9,2,2.1c0.2,1.2-0.1,2.3-1.1,3.2c-0.8,0.7-1.8,0.9-2.8,1
		c-1.6,0.2-3.1,0.1-4.6-0.4c-1.3-0.5-2.1-1.4-2.3-2.8c-0.1-0.7,0-0.8,0.7-0.8c0.2,0,0.4,0,0.6,0c0.5-0.1,0.7,0.1,0.8,0.6
		c0.1,0.9,0.7,1.4,1.5,1.6c1.3,0.3,2.6,0.3,3.9,0c0.2-0.1,0.5-0.2,0.6-0.3c0.5-0.3,0.6-0.8,0.6-1.3c0-0.5-0.4-0.7-0.9-0.9
		c-1.1-0.4-2.2-0.4-3.3-0.6c-0.8-0.1-1.5-0.2-2.3-0.5c-1-0.4-1.7-1-1.9-2.2c-0.1-1.2,0.2-2.2,1.1-3
		C348.5,77.9,349.8,77.8,351.3,77.8z"/>
	<path class="st6" d="M312.2,83.4c-0.3-0.9,0.3-1.4,1.2-2c0.9-0.5,1.5-0.5,2.4,0c1,0.5,1.4,1.2,1.2,2.2c0,0.2,0,0.4,0,0.7
		c0.1,0.5-0.2,0.7-0.5,0.9c-1.1,0.7-2.2,1.3-3.5,0.2c-0.6-0.5-1-0.8-0.8-1.5C312.2,83.8,312.2,83.7,312.2,83.4z"/>
	<path class="st6" d="M235.1,83.5c0-2.1,0-4.1,0-6.2c0-0.7,0.3-1.2,0.9-1.5c3.6-2.1,7.2-4.1,10.8-6.2c0.6-0.4,1.2-0.4,1.8,0
		c3.6,2.1,7.2,4.2,10.8,6.2c0.6,0.4,0.9,0.9,0.9,1.5c0,4.1,0,8.3,0,12.4c0,0.7-0.3,1.2-0.9,1.5c-3.6,2.1-7.2,4.1-10.7,6.2
		c-0.7,0.4-1.2,0.4-1.9,0c-3.5-2-7-4.1-10.6-6.1c-0.7-0.4-1-0.9-1-1.7C235.1,87.6,235.1,85.6,235.1,83.5z"/>
</g>
<g>
	<ellipse class="st23" cx="933.4" cy="208.9" rx="50.1" ry="26.1"/>
	<g>
		<path class="st39" d="M915.5,196.5h-12.7l-5.5,27.8h6.5l1.4-7.2h6.2c5.8,0.3,12.3-4.5,12.3-12.7
			C923.7,199.6,921,196.9,915.5,196.5z M910.7,212h-4.1l0,0l1.7-10.3h4.5c2.4,0,4.1,1,4.1,3.1C916.5,210.6,913.8,211.6,910.7,212z"
			/>
		<path class="st39" d="M936.9,217.1h6.9l2.4-14.1c0.7-3.4-1.4-6.2-6.9-6.5h-6.2l1.4-7.2H928l-5.5,27.8h6.5l3.1-15.4h5.1
			c2.4,0,2.4,1,2.1,2.7L936.9,217.1z"/>
		<path class="st39" d="M961.5,196.5h-12.7l-5.5,27.8h6.5l1.4-7.2h6.2c5.8,0.3,12.3-4.5,12.3-12.7
			C969.7,199.6,967,196.9,961.5,196.5z M956.7,212h-4.1l0,0l1.7-10.3h4.5c2.4,0,4.1,1,4.1,3.1C962.5,210.6,959.8,211.6,956.7,212z"
			/>
	</g>
</g>
<g>
	<path class="st36" d="M201.1,267.5c0-0.7,0.1-1.2,0.4-1.5c0.3-0.3,0.7-0.5,1.3-0.5c0.6,0,1,0.2,1.3,0.5s0.5,0.8,0.5,1.5
		c0,0.6-0.2,1.1-0.5,1.5c-0.3,0.3-0.8,0.5-1.3,0.5c-0.5,0-0.9-0.2-1.2-0.5C201.2,268.7,201.1,268.2,201.1,267.5z"/>
	<path class="st36" d="M226.5,269h-2.8L212,251h-0.1c0.2,2.1,0.2,4.1,0.2,5.8V269h-2.3v-21.5h2.8l11.7,17.9h0.1
		c0-0.3-0.1-1.1-0.1-2.5c-0.1-1.4-0.1-2.5-0.1-3.1v-12.3h2.3V269z"/>
	<path class="st36" d="M244.4,269h-12v-21.5h12v2.2h-9.5v6.9h8.9v2.2h-8.9v7.9h9.5V269z"/>
	<path class="st36" d="M255.8,269h-2.5v-19.2h-6.8v-2.2h16.1v2.2h-6.8V269z"/>
</g>
<g>
	<path class="st36" d="M342.3,320.7c-1.2,0-2.1-0.2-2.7-0.5v-2.7c0.9,0.2,1.8,0.4,2.7,0.4c1.2,0,2.2-0.4,2.8-1.1
		c0.6-0.7,1-1.8,1-3.2v-27.1h3.1v26.8c0,2.3-0.6,4.2-1.8,5.5C346.2,320,344.5,320.7,342.3,320.7z"/>
	<path class="st36" d="M371.6,306.3c0,2.4-0.9,4.2-2.6,5.6c-1.7,1.3-4.1,2-7,2c-3.2,0-5.7-0.4-7.4-1.2v-3c1.1,0.5,2.3,0.8,3.6,1.1
		c1.3,0.3,2.6,0.4,3.9,0.4c2.1,0,3.7-0.4,4.7-1.2c1.1-0.8,1.6-1.9,1.6-3.3c0-0.9-0.2-1.7-0.6-2.3c-0.4-0.6-1-1.2-1.9-1.7
		c-0.9-0.5-2.2-1.1-4-1.7c-2.5-0.9-4.3-2-5.4-3.2c-1.1-1.2-1.6-2.8-1.6-4.8c0-2.1,0.8-3.7,2.4-5c1.6-1.2,3.6-1.9,6.2-1.9
		c2.7,0,5.2,0.5,7.4,1.5l-1,2.7c-2.2-0.9-4.4-1.4-6.5-1.4c-1.7,0-3,0.4-3.9,1.1c-0.9,0.7-1.4,1.7-1.4,3c0,0.9,0.2,1.7,0.5,2.3
		c0.3,0.6,0.9,1.1,1.7,1.6c0.8,0.5,2.1,1.1,3.8,1.7c2.8,1,4.8,2.1,5.9,3.3C371.1,303,371.6,304.5,371.6,306.3z"/>
</g>
</svg>
